<svg width="1166" height="29" viewBox="0 0 1166 29" fill="none" xmlns="http://www.w3.org/2000/svg">
<g opacity="0.6">
<path d="M19.5765 12.9863C19.2145 13.3507 18.9372 13.7906 18.7645 14.2745C18.5917 14.7584 18.5278 15.2745 18.5772 15.7859L18.56 15.7687C18.6108 16.3708 18.5297 16.9767 18.3223 17.5441C18.1149 18.1115 17.7862 18.6268 17.3592 19.054C16.9322 19.4813 16.4171 19.8101 15.85 20.0176C15.2828 20.2251 14.6772 20.3063 14.0755 20.2555L14.0927 20.2727C13.3729 20.2056 12.6499 20.3624 12.0224 20.7215C11.3949 21.0806 10.8934 21.6246 10.5862 22.2793C10.279 22.934 10.1811 23.6676 10.3059 24.38C10.4307 25.0924 10.7721 25.749 11.2835 26.2602C11.7949 26.7714 12.4514 27.1123 13.1636 27.2365C13.8758 27.3607 14.6089 27.2621 15.263 26.9542C15.9172 26.6463 16.4604 26.144 16.8188 25.5159C17.1771 24.8877 17.3331 24.1643 17.2655 23.4442L17.2836 23.4614C17.2328 22.8593 17.314 22.2535 17.5214 21.686C17.7288 21.1186 18.0575 20.6033 18.4845 20.1761C18.9115 19.7489 19.4265 19.42 19.9937 19.2125C20.5608 19.005 21.1664 18.9238 21.7682 18.9746L21.75 18.9574C22.338 19.0103 22.9298 18.9139 23.4706 18.677C24.0114 18.4402 24.4837 18.0705 24.8437 17.6024C25.2037 17.1343 25.4398 16.5829 25.5301 15.9992C25.6203 15.4155 25.5619 14.8184 25.3601 14.2633C25.1583 13.7082 24.8198 13.2131 24.3758 12.8238C23.9318 12.4345 23.3968 12.1636 22.8203 12.0363C22.2439 11.9089 21.6446 11.9292 21.078 12.0953C20.5115 12.2614 19.996 12.5678 19.5794 12.9863H19.5765Z" fill="#1D2130"/>
<path d="M12.5287 18.0188L12.5106 18.0015C13.022 18.0531 13.5385 17.9903 14.0227 17.8177C14.5069 17.6451 14.9467 17.3669 15.3103 17.0034C15.6739 16.6399 15.9523 16.2001 16.1252 15.7158C16.2981 15.2315 16.3612 14.7148 16.3101 14.203L16.3282 14.2202C16.2774 13.6182 16.3586 13.0123 16.566 12.4449C16.7734 11.8775 17.1021 11.3621 17.5291 10.9349C17.9561 10.5077 18.4711 10.1789 19.0383 9.97136C19.6054 9.76385 20.211 9.68267 20.8127 9.73349L20.7946 9.71629C21.5145 9.78393 22.2376 9.62774 22.8655 9.26905C23.4934 8.91036 23.9954 8.36662 24.303 7.71199C24.6107 7.05736 24.709 6.32372 24.5846 5.61113C24.4602 4.89854 24.1191 4.2417 23.6078 3.7302C23.0966 3.21869 22.44 2.87742 21.7278 2.75295C21.0156 2.62847 20.2823 2.72683 19.628 3.03463C18.9737 3.34243 18.4302 3.84468 18.0717 4.47286C17.7132 5.10105 17.5571 5.82459 17.6247 6.5448L17.6075 6.52664C17.6584 7.12871 17.5774 7.73467 17.3701 8.30217C17.1627 8.86968 16.834 9.38505 16.407 9.81231C15.98 10.2396 15.4648 10.5684 14.8976 10.7759C14.3304 10.9833 13.7247 11.0644 13.123 11.0134L13.1401 11.0315C12.6287 10.98 12.1122 11.0428 11.628 11.2154C11.1438 11.388 10.704 11.6661 10.3404 12.0297C9.97676 12.3932 9.69844 12.833 9.52554 13.3173C9.35264 13.8016 9.28948 14.3183 9.34062 14.8301L9.32343 14.8129C9.37406 15.4149 9.2928 16.0207 9.08534 16.588C8.87787 17.1554 8.54919 17.6706 8.12222 18.0978C7.69524 18.525 7.18026 18.8538 6.61319 19.0614C6.04612 19.2689 5.44061 19.3502 4.8389 19.2996L4.8561 19.3168C4.13624 19.2492 3.41306 19.4053 2.78518 19.764C2.15731 20.1227 1.65531 20.6665 1.34766 21.3211C1.04001 21.9757 0.941693 22.7094 1.06611 23.4219C1.19053 24.1345 1.53163 24.7914 2.04288 25.3029C2.55414 25.8144 3.21066 26.1557 3.92289 26.2801C4.63513 26.4046 5.36841 26.3062 6.02272 25.9984C6.67702 25.6906 7.2205 25.1884 7.57901 24.5602C7.93753 23.932 8.09363 23.2085 8.02603 22.4883L8.04418 22.5055C7.99339 21.9034 8.07453 21.2976 8.28193 20.7301C8.48934 20.1627 8.81801 19.6474 9.24502 19.2202C9.67203 18.793 10.1871 18.4641 10.7542 18.2566C11.3214 18.0491 11.927 17.9679 12.5287 18.0188Z" fill="#1D2130"/>
<path d="M6.12583 16.1004C6.48794 15.736 6.76518 15.2962 6.93776 14.8122C7.11034 14.3282 7.174 13.8121 7.1242 13.3007L7.14235 13.3179C7.09152 12.7157 7.17269 12.1097 7.38021 11.5421C7.58773 10.9745 7.91658 10.4591 8.3438 10.0319C8.77103 9.6046 9.28633 9.2758 9.85371 9.06842C10.4211 8.86105 11.0269 8.78009 11.6288 8.83121L11.6106 8.814C12.3302 8.88145 13.0531 8.72518 13.6807 8.36652C14.3083 8.00785 14.81 7.46424 15.1175 6.80981C15.425 6.15539 15.5232 5.42202 15.3988 4.7097C15.2744 3.99738 14.9334 3.34078 14.4223 2.82947C13.9112 2.31815 13.255 1.97699 12.543 1.85251C11.831 1.72804 11.098 1.82631 10.4439 2.13392C9.78981 2.44154 9.24646 2.94352 8.88797 3.57141C8.52948 4.19931 8.37329 4.92255 8.44071 5.64251L8.42351 5.62531C8.47431 6.22735 8.39317 6.83323 8.18576 7.40065C7.97835 7.96808 7.64968 8.48339 7.22267 8.91061C6.79566 9.33783 6.2806 9.66667 5.71346 9.87417C5.14631 10.0817 4.54073 10.1629 3.93899 10.112L3.95618 10.1292C3.36822 10.0765 2.77646 10.1731 2.23573 10.41C1.69501 10.647 1.22282 11.0167 0.86292 11.4849C0.503021 11.953 0.267056 12.5045 0.176893 13.0882C0.0867288 13.6719 0.145283 14.2689 0.347129 14.8239C0.548975 15.3789 0.887583 15.874 1.33157 16.2632C1.77557 16.6524 2.31057 16.9233 2.88702 17.0506C3.46347 17.1778 4.06271 17.1575 4.62921 16.9914C5.19571 16.8253 5.71115 16.5188 6.12774 16.1004H6.12583Z" fill="#1D2130"/>
<path d="M35.7204 6.56678H38.5579V20.3816H35.7204V6.56678Z" fill="#1D2130"/>
<path d="M40.1648 15.6511C40.1609 14.6584 40.4515 13.6867 40.9999 12.8593C41.5483 12.0319 42.3298 11.386 43.2454 11.0033C44.161 10.6206 45.1696 10.5184 46.1433 10.7097C47.117 10.9009 48.0121 11.377 48.7151 12.0776C49.4182 12.7782 49.8976 13.6718 50.0927 14.6452C50.2877 15.6186 50.1896 16.6281 49.8108 17.5457C49.432 18.4633 48.7895 19.2478 47.9647 19.7997C47.1399 20.3517 46.17 20.6464 45.1777 20.6464C44.519 20.6539 43.8654 20.53 43.2551 20.2818C42.6449 20.0337 42.0902 19.6664 41.6234 19.2013C41.1567 18.7362 40.7873 18.1827 40.5369 17.5731C40.2864 16.9636 40.16 16.3102 40.1648 15.6511ZM47.3531 15.6511C47.3412 15.2232 47.2036 14.8083 46.9573 14.4582C46.7111 14.1081 46.3671 13.8384 45.9685 13.6828C45.5699 13.5273 45.1342 13.4927 44.7161 13.5835C44.2979 13.6742 43.9158 13.8863 43.6175 14.1932C43.3191 14.5001 43.1178 14.8881 43.0387 15.3088C42.9596 15.7295 43.0062 16.1642 43.1727 16.5586C43.3392 16.953 43.6182 17.2895 43.9748 17.526C44.3314 17.7626 44.7498 17.8888 45.1777 17.8888C45.4707 17.8966 45.7622 17.8436 46.0337 17.7331C46.3053 17.6226 46.551 17.457 46.7554 17.2468C46.9598 17.0366 47.1184 16.7862 47.2213 16.5116C47.3241 16.237 47.369 15.944 47.3531 15.6511Z" fill="#1D2130"/>
<path d="M61.4992 10.9197V19.9047C61.4992 23.0838 59.021 24.4277 56.5055 24.4277C55.6198 24.494 54.733 24.315 53.9423 23.9104C53.1515 23.5057 52.4875 22.891 52.0229 22.1337L54.4438 20.7334C54.6391 21.1281 54.9502 21.4538 55.3356 21.6668C55.7209 21.8799 56.1621 21.97 56.6001 21.9253C56.88 21.9641 57.1651 21.9394 57.4342 21.8531C57.7033 21.7668 57.9495 21.6211 58.1548 21.4267C58.36 21.2323 58.5189 20.9943 58.6197 20.7301C58.7205 20.466 58.7607 20.1826 58.7372 19.9008V19.0358C58.405 19.4425 57.9821 19.7657 57.5024 19.9793C57.0227 20.193 56.4997 20.2911 55.9753 20.266C54.7274 20.2266 53.5437 19.7029 52.6749 18.8059C51.8061 17.9088 51.3203 16.7086 51.3203 15.4595C51.3203 14.2104 51.8061 13.0102 52.6749 12.1131C53.5437 11.2161 54.7274 10.6924 55.9753 10.653C56.4997 10.6279 57.0227 10.726 57.5024 10.9397C57.9821 11.1533 58.405 11.4765 58.7372 11.8832V10.9178L61.4992 10.9197ZM58.7382 15.4609C58.7573 15.0034 58.6391 14.5507 58.3988 14.161C58.1585 13.7712 57.8071 13.4624 57.3899 13.2741C56.9727 13.0859 56.5087 13.0269 56.0577 13.1047C55.6066 13.1825 55.1892 13.3936 54.8591 13.7107C54.529 14.0279 54.3013 14.4367 54.2054 14.8844C54.1094 15.3321 54.1496 15.7983 54.3207 16.223C54.4918 16.6477 54.786 17.0115 55.1655 17.2675C55.545 17.5234 55.9924 17.6599 56.4501 17.6594C56.7482 17.6802 57.0474 17.6383 57.3284 17.5364C57.6093 17.4345 57.8658 17.2749 58.0814 17.0678C58.2969 16.8607 58.4668 16.6107 58.5799 16.3339C58.693 16.0572 58.7469 15.7598 58.7382 15.4609Z" fill="#1D2130"/>
<path d="M63.1061 15.6511C63.1022 14.6584 63.3928 13.6867 63.9412 12.8593C64.4896 12.0319 65.2711 11.386 66.1867 11.0033C67.1023 10.6206 68.1109 10.5184 69.0846 10.7097C70.0583 10.9009 70.9534 11.377 71.6565 12.0776C72.3595 12.7782 72.839 13.6718 73.034 14.6452C73.2291 15.6186 73.131 16.6281 72.7522 17.5457C72.3733 18.4633 71.7308 19.2478 70.9061 19.7997C70.0813 20.3517 69.1113 20.6464 68.119 20.6464C67.4603 20.6539 66.8067 20.53 66.1965 20.2818C65.5862 20.0337 65.0315 19.6664 64.5648 19.2013C64.098 18.7362 63.7287 18.1827 63.4782 17.5731C63.2278 16.9636 63.1013 16.3102 63.1061 15.6511ZM70.2944 15.6511C70.2825 15.2232 70.1449 14.8083 69.8986 14.4582C69.6524 14.1081 69.3084 13.8384 68.9098 13.6828C68.5112 13.5273 68.0756 13.4927 67.6574 13.5835C67.2393 13.6742 66.8571 13.8863 66.5588 14.1932C66.2605 14.5001 66.0592 14.8881 65.98 15.3088C65.9009 15.7295 65.9475 16.1642 66.114 16.5586C66.2805 16.953 66.5595 17.2895 66.9161 17.526C67.2727 17.7626 67.6911 17.8888 68.119 17.8888C68.412 17.8966 68.7035 17.8436 68.975 17.7331C69.2466 17.6226 69.4923 17.457 69.6967 17.2468C69.9011 17.0366 70.0597 16.7862 70.1626 16.5116C70.2654 16.237 70.3103 15.944 70.2944 15.6511Z" fill="#1D2130"/>
<path d="M74.455 8.38385C74.455 8.04697 74.5549 7.71765 74.742 7.43754C74.929 7.15743 75.1949 6.93911 75.506 6.81019C75.8171 6.68127 76.1594 6.64754 76.4896 6.71327C76.8199 6.77899 77.1232 6.94122 77.3613 7.17943C77.5994 7.41764 77.7616 7.72114 77.8273 8.05155C77.893 8.38196 77.8592 8.72444 77.7304 9.03568C77.6015 9.34692 77.3833 9.61294 77.1033 9.8001C76.8234 9.98727 76.4942 10.0872 76.1575 10.0872C75.7074 10.0827 75.2769 9.90179 74.9586 9.58332C74.6403 9.26486 74.4595 8.83421 74.455 8.38385ZM74.7416 10.9197H77.5801V20.3826H74.7378L74.7416 10.9197Z" fill="#1D2130"/>
<path d="M89.8318 15.6511C89.8646 16.2765 89.7735 16.9022 89.5638 17.4923C89.354 18.0823 89.0297 18.625 88.6096 19.0893C88.1895 19.5535 87.6818 19.93 87.1157 20.1973C86.5496 20.4645 85.9362 20.6171 85.311 20.6464C84.7852 20.6751 84.2596 20.5863 83.7723 20.3866C83.285 20.1869 82.8482 19.8812 82.4936 19.4917V24.1667H79.6561V10.9197H82.4936V11.8086C82.8484 11.4194 83.2852 11.1139 83.7725 10.9144C84.2597 10.7149 84.7853 10.6262 85.311 10.6549C85.9364 10.684 86.5498 10.8366 87.1161 11.1039C87.6823 11.3711 88.1901 11.7477 88.6103 12.2121C89.0304 12.6764 89.3547 13.2193 89.5643 13.8096C89.7739 14.3998 89.8649 15.0256 89.8318 15.6511ZM86.9944 15.6511C86.9833 15.2083 86.8419 14.7785 86.5879 14.4156C86.3338 14.0528 85.9785 13.7729 85.5663 13.6111C85.1541 13.4493 84.7034 13.4128 84.2705 13.506C83.8376 13.5992 83.4418 13.8181 83.1327 14.1353C82.8236 14.4525 82.6148 14.8538 82.5325 15.2891C82.4503 15.7244 82.4981 16.1743 82.6702 16.5825C82.8422 16.9907 83.1308 17.3391 83.4997 17.584C83.8687 17.8289 84.3017 17.9595 84.7445 17.9595C85.0484 17.973 85.3519 17.9221 85.6348 17.8101C85.9177 17.6981 86.1738 17.5275 86.3863 17.3096C86.5987 17.0916 86.7627 16.8312 86.8675 16.5454C86.9723 16.2596 87.0155 15.9548 86.9944 15.6511Z" fill="#1D2130"/>
<path d="M98.5878 17.5428C98.5878 19.7192 96.6971 20.6464 94.6545 20.6464C93.8292 20.7212 93.0005 20.5466 92.2754 20.1451C91.5504 19.7436 90.9624 19.1338 90.5875 18.3944L93.0457 16.9941C93.1451 17.3359 93.3587 17.6332 93.6508 17.8363C93.9429 18.0395 94.2959 18.1363 94.6507 18.1105C95.3309 18.1105 95.672 17.9022 95.672 17.5246C95.672 16.4827 91.0184 17.0323 91.0184 13.7586C91.0184 11.6949 92.7591 10.655 94.7262 10.655C95.4657 10.6315 96.1979 10.807 96.8465 11.1631C97.4951 11.5192 98.0364 12.0428 98.4139 12.6794L95.993 13.9851C95.8868 13.7373 95.7101 13.5261 95.4848 13.3781C95.2596 13.23 94.9957 13.1516 94.7262 13.1526C94.2342 13.1526 93.9313 13.3437 93.9313 13.6821C93.9351 14.7613 98.5878 14.0415 98.5878 17.5428Z" fill="#1D2130"/>
<path d="M108.953 10.9197V20.3826H106.115V19.4927C105.788 19.8854 105.372 20.1948 104.902 20.3955C104.432 20.5962 103.921 20.6825 103.411 20.6474C101.501 20.6474 99.8766 19.2853 99.8766 16.7284V10.9197H102.714V16.3126C102.69 16.538 102.716 16.7658 102.789 16.9803C102.862 17.1947 102.981 17.3906 103.138 17.5544C103.295 17.7182 103.485 17.8458 103.696 17.9285C103.907 18.0112 104.133 18.0469 104.359 18.0331C105.4 18.0331 106.118 17.4281 106.118 16.0842V10.9226L108.953 10.9197Z" fill="#1D2130"/>
<path d="M125.223 14.572V20.3817H122.385V14.8177C122.385 13.8714 121.931 13.2664 121.024 13.2664C120.078 13.2664 119.548 13.9288 119.548 15.0452V20.3817H116.711V14.8177C116.711 13.8714 116.258 13.2664 115.349 13.2664C114.403 13.2664 113.874 13.9288 113.874 15.0452V20.3817H111.036V10.9188H113.874V11.7886C114.168 11.4027 114.554 11.0967 114.997 10.8985C115.44 10.7003 115.925 10.6163 116.408 10.654C116.894 10.6303 117.377 10.7328 117.812 10.9516C118.246 11.1703 118.616 11.4979 118.886 11.9024C119.2 11.4792 119.617 11.1428 120.096 10.9245C120.576 10.7062 121.103 10.6131 121.629 10.654C123.8 10.655 125.223 12.2063 125.223 14.572Z" fill="#1D2130"/>
<path d="M127.623 10.8614C128.786 10.8614 129.728 9.91824 129.728 8.75476C129.728 7.59127 128.786 6.64808 127.623 6.64808C126.46 6.64808 125.517 7.59127 125.517 8.75476C125.517 9.91824 126.46 10.8614 127.623 10.8614Z" fill="#1D2130"/>
</g>
<g opacity="0.6">
<path d="M247.425 7.06581H250.306V21.0093H247.425V7.06581Z" fill="#1D2130"/>
<path d="M251.92 16.2328C251.92 15.2296 252.217 14.249 252.772 13.4153C253.327 12.5816 254.117 11.9323 255.04 11.5497C255.963 11.1672 256.978 11.0686 257.957 11.2664C258.936 11.4642 259.835 11.9496 260.539 12.661C261.243 13.3724 261.721 14.2777 261.912 15.2623C262.103 16.2469 261.999 17.2664 261.613 18.1916C261.227 19.1168 260.576 19.9059 259.743 20.4591C258.91 21.0123 257.932 21.3045 256.934 21.2988C256.272 21.304 255.615 21.1763 255.002 20.9232C254.39 20.67 253.834 20.2966 253.367 19.8248C252.9 19.3529 252.531 18.7922 252.283 18.1754C252.034 17.5585 251.911 16.8981 251.92 16.2328ZM259.143 16.2328C259.132 15.8003 258.994 15.3808 258.746 15.0267C258.499 14.6726 258.153 14.3996 257.752 14.2419C257.351 14.0843 256.913 14.0489 256.492 14.1402C256.071 14.2315 255.686 14.4455 255.385 14.7553C255.085 15.0652 254.882 15.4572 254.802 15.8823C254.722 16.3074 254.769 16.7468 254.936 17.1455C255.103 17.5441 255.384 17.8843 255.743 18.1236C256.101 18.3629 256.522 18.4906 256.953 18.4908C257.246 18.4965 257.538 18.4414 257.809 18.329C258.08 18.2165 258.325 18.0491 258.528 17.8372C258.732 17.6253 258.89 17.3734 258.993 17.0973C259.095 16.8213 259.14 16.527 259.124 16.2328H259.143Z" fill="#1D2130"/>
<path d="M273.349 11.4563V20.5365C273.349 23.7401 270.852 25.1007 268.325 25.1007C267.434 25.1741 266.541 24.9963 265.745 24.5871C264.949 24.178 264.283 23.5538 263.821 22.7848L266.251 21.376C266.448 21.7748 266.761 22.1039 267.149 22.3194C267.537 22.5349 267.981 22.6266 268.421 22.5821C268.702 22.6169 268.987 22.5889 269.256 22.5001C269.525 22.4113 269.771 22.2639 269.977 22.0684C270.182 21.8729 270.342 21.6343 270.446 21.3694C270.549 21.1046 270.592 20.8202 270.573 20.5365V19.6584C270.238 20.0668 269.812 20.3911 269.33 20.6055C268.849 20.8199 268.324 20.9185 267.797 20.8935C266.523 20.8935 265.302 20.3852 264.401 19.4804C263.501 18.5755 262.995 17.3484 262.995 16.0688C262.995 14.7892 263.501 13.562 264.401 12.6572C265.302 11.7523 266.523 11.244 267.797 11.244C268.324 11.219 268.849 11.3176 269.33 11.532C269.812 11.7464 270.238 12.0707 270.573 12.4792V11.5142L273.349 11.4563ZM270.573 16.0398C270.592 15.5781 270.473 15.1213 270.232 14.728C269.991 14.3346 269.638 14.0228 269.219 13.8327C268.799 13.6425 268.333 13.5827 267.88 13.6608C267.427 13.739 267.007 13.9516 266.675 14.2713C266.343 14.591 266.113 15.0032 266.016 15.4548C265.919 15.9065 265.959 16.377 266.13 16.8058C266.302 17.2346 266.597 17.6022 266.978 17.8612C267.359 18.1202 267.808 18.2588 268.268 18.2592C268.568 18.2809 268.869 18.2391 269.152 18.1366C269.435 18.0341 269.694 17.873 269.911 17.6639C270.128 17.4547 270.299 17.2021 270.413 16.9224C270.527 16.6426 270.582 16.342 270.573 16.0398Z" fill="#1D2130"/>
<path d="M274.972 16.2328C274.972 15.2304 275.268 14.2506 275.823 13.4173C276.377 12.584 277.165 11.9347 278.087 11.5515C279.009 11.1684 280.024 11.0686 281.002 11.2649C281.98 11.4611 282.879 11.9446 283.584 12.654C284.289 13.3635 284.768 14.2671 284.962 15.2504C285.155 16.2337 285.054 17.2526 284.671 18.1782C284.288 19.1037 283.64 19.8942 282.809 20.4497C281.979 21.0052 281.003 21.3007 280.005 21.2988C279.342 21.3052 278.683 21.1785 278.069 20.9261C277.455 20.6737 276.897 20.3006 276.428 19.8288C275.96 19.357 275.589 18.7958 275.339 18.1783C275.089 17.5608 274.964 16.8994 274.972 16.2328ZM282.195 16.2328C282.184 15.7999 282.045 15.38 281.798 15.0257C281.55 14.6714 281.203 14.3984 280.802 14.2411C280.4 14.0837 279.961 14.0489 279.54 14.141C279.119 14.2331 278.734 14.448 278.434 14.7588C278.134 15.0696 277.932 15.4625 277.853 15.8883C277.774 16.314 277.822 16.7537 277.991 17.1521C278.16 17.5506 278.442 17.8902 278.802 18.1283C279.162 18.3664 279.584 18.4925 280.015 18.4908C280.308 18.4965 280.599 18.4414 280.87 18.329C281.141 18.2165 281.386 18.0491 281.59 17.8372C281.794 17.6253 281.952 17.3734 282.054 17.0973C282.157 16.8213 282.201 16.527 282.185 16.2328H282.195Z" fill="#1D2130"/>
<path d="M286.373 8.89916C286.373 8.55945 286.473 8.22737 286.661 7.94491C286.849 7.66245 287.116 7.4423 287.429 7.3123C287.741 7.18229 288.085 7.14828 288.416 7.21455C288.748 7.28083 289.053 7.44442 289.292 7.68463C289.531 7.92484 289.694 8.23089 289.76 8.56407C289.826 8.89725 289.792 9.24261 289.662 9.55646C289.533 9.87031 289.314 10.1386 289.033 10.3273C288.752 10.516 288.421 10.6168 288.083 10.6168C287.631 10.6117 287.199 10.4292 286.879 10.1081C286.56 9.78711 286.378 9.35314 286.373 8.89916ZM286.652 11.4563H289.533V21.0093H286.652V11.4563Z" fill="#1D2130"/>
<path d="M301.866 16.2328C301.898 16.8682 301.805 17.5036 301.592 18.1027C301.379 18.7017 301.05 19.2525 300.624 19.7233C300.198 20.1942 299.684 20.5758 299.111 20.8462C298.538 21.1165 297.917 21.2704 297.284 21.2988C296.748 21.3347 296.21 21.2483 295.711 21.0461C295.212 20.844 294.765 20.5312 294.403 20.1312V24.8498H291.521V11.4563H294.403V12.3537C294.765 11.9549 295.213 11.6436 295.712 11.4431C296.211 11.2426 296.748 11.158 297.284 11.1958C297.914 11.2243 298.533 11.3772 299.104 11.6458C299.675 11.9143 300.188 12.2933 300.614 12.761C301.039 13.2288 301.369 13.7761 301.584 14.3718C301.798 14.9675 301.894 15.5999 301.866 16.2328ZM298.985 16.2328C298.973 15.7847 298.83 15.3498 298.574 14.9828C298.318 14.6158 297.959 14.333 297.544 14.1698C297.128 14.0065 296.674 13.9702 296.238 14.0653C295.802 14.1604 295.403 14.3826 295.092 14.7043C294.781 15.0259 294.572 15.4325 294.49 15.8733C294.408 16.314 294.458 16.7692 294.632 17.1817C294.807 17.5943 295.099 17.9459 295.472 18.1925C295.844 18.4391 296.281 18.5698 296.727 18.568C297.033 18.581 297.338 18.529 297.622 18.4153C297.906 18.3017 298.164 18.1289 298.377 17.9084C298.59 17.6879 298.754 17.4247 298.859 17.1359C298.964 16.8471 299.006 16.5394 298.985 16.2328Z" fill="#1D2130"/>
<path d="M310.635 18.1434C310.635 20.3435 308.714 21.2795 306.678 21.2795C305.848 21.3546 305.014 21.1777 304.284 20.7717C303.555 20.3658 302.963 19.7494 302.586 19.0022L305.064 17.5934C305.163 17.9377 305.376 18.2377 305.668 18.4432C305.959 18.6487 306.313 18.7472 306.669 18.7224C307.35 18.7224 307.696 18.5101 307.696 18.1241C307.696 17.0723 303.019 17.632 303.019 14.3222C303.019 12.2379 304.767 11.1958 306.745 11.1958C307.497 11.1619 308.245 11.3334 308.908 11.6918C309.571 12.0503 310.124 12.5825 310.511 13.2318L308.032 14.5441C307.923 14.2952 307.744 14.0834 307.517 13.9344C307.291 13.7855 307.026 13.7056 306.755 13.7046C306.255 13.7046 305.958 13.8976 305.958 14.2353C305.958 15.3354 310.635 14.6117 310.635 18.1434Z" fill="#1D2130"/>
<path d="M321.076 11.4564V21.0093H318.194V20.1119C317.867 20.5092 317.451 20.8235 316.981 21.0297C316.51 21.2359 315.998 21.328 315.486 21.2988C313.565 21.2988 311.922 19.9189 311.922 17.3425V11.4564H314.804V16.9083C314.781 17.1362 314.808 17.3664 314.883 17.5829C314.957 17.7993 315.078 17.997 315.236 18.1621C315.394 18.3273 315.585 18.456 315.798 18.5394C316.01 18.6228 316.238 18.6589 316.466 18.6452C317.503 18.6452 318.233 18.0276 318.233 16.7153V11.4564H321.076Z" fill="#1D2130"/>
<path d="M337.404 15.1424V21.0093H334.523V15.3933C334.523 14.4283 334.071 13.8301 333.159 13.8301C332.247 13.8301 331.67 14.4959 331.67 15.6249V21.0093H328.789V15.3933C328.789 14.4283 328.337 13.8301 327.425 13.8301C326.512 13.8301 325.936 14.4959 325.936 15.6249V21.0093H323.055V11.4563H325.936V12.3344C326.234 11.9464 326.624 11.6392 327.07 11.4404C327.516 11.2417 328.005 11.1576 328.491 11.1958C328.978 11.1702 329.464 11.2724 329.9 11.4924C330.336 11.7123 330.708 12.0424 330.979 12.4502C331.295 12.0241 331.714 11.6856 332.196 11.4662C332.678 11.2468 333.208 11.1538 333.735 11.1958C335.983 11.1958 337.404 12.759 337.404 15.1424Z" fill="#1D2130"/>
<path d="M230.261 4.55696V0.455933H217.39V28.6324H230.261V24.5314C227.624 24.5314 225.096 23.4791 223.231 21.6062C221.367 19.7332 220.32 17.1929 220.32 14.5442C220.32 11.8954 221.367 9.3551 223.231 7.48214C225.096 5.60918 227.624 4.55696 230.261 4.55696Z" fill="#1D2130"/>
<path d="M230.261 4.55696V24.5314C232.897 24.5314 235.426 23.4791 237.29 21.6062C239.155 19.7332 240.202 17.1929 240.202 14.5442C240.202 11.8954 239.155 9.35511 237.29 7.48214C235.426 5.60918 232.897 4.55696 230.261 4.55696Z" fill="#1D2130"/>
<path d="M339.825 11.3984C340.992 11.3984 341.938 10.448 341.938 9.27552C341.938 8.10309 340.992 7.15264 339.825 7.15264C338.658 7.15264 337.712 8.10309 337.712 9.27552C337.712 10.448 338.658 11.3984 339.825 11.3984Z" fill="#1D2130"/>
</g>
<g opacity="0.6">
<path d="M462.64 8.88502H465.521V20.4794H462.64V8.88502ZM466.664 16.1016C466.664 13.2341 468.432 11.5232 471.159 11.5232C473.887 11.5232 475.654 13.2341 475.654 16.1016C475.654 18.9692 473.926 20.6897 471.159 20.6897C468.393 20.6897 466.664 19.017 466.664 16.1016ZM472.763 16.1016C472.763 14.5245 472.139 13.5973 471.159 13.5973C470.18 13.5973 469.565 14.5532 469.565 16.1016C469.565 17.6501 470.17 18.5868 471.159 18.5868C472.149 18.5868 472.763 17.7075 472.763 16.1112V16.1016ZM476.74 21.0434H479.506C479.638 21.3344 479.86 21.5754 480.141 21.7304C480.421 21.8854 480.744 21.9461 481.062 21.9036C482.157 21.9036 482.733 21.311 482.733 20.4507V18.8449H482.676C482.446 19.3371 482.074 19.7495 481.606 20.0289C481.139 20.3083 480.598 20.4419 480.054 20.4125C477.95 20.4125 476.557 18.8162 476.557 16.073C476.557 13.3297 477.883 11.5996 480.092 11.5996C480.653 11.5777 481.208 11.7271 481.682 12.0278C482.156 12.3284 482.526 12.766 482.743 13.2819V11.6856H485.624V20.3838C485.624 22.4771 483.771 23.7771 481.033 23.7771C478.488 23.7771 476.903 22.6396 476.74 21.0529V21.0434ZM482.743 16.0921C482.743 14.6966 482.099 13.8172 481.081 13.8172C480.063 13.8172 479.439 14.687 479.439 16.0921C479.439 17.4972 480.054 18.2905 481.081 18.2905C482.109 18.2905 482.743 17.5163 482.743 16.1016V16.0921ZM486.71 16.0921C486.71 13.2246 488.477 11.5136 491.205 11.5136C493.933 11.5136 495.71 13.2246 495.71 16.0921C495.71 18.9596 493.981 20.6801 491.205 20.6801C488.429 20.6801 486.71 19.017 486.71 16.1016V16.0921ZM492.809 16.0921C492.809 14.5149 492.185 13.5878 491.205 13.5878C490.225 13.5878 489.659 14.5532 489.659 16.1112C489.659 17.6692 490.264 18.5964 491.243 18.5964C492.223 18.5964 492.809 17.7075 492.809 16.1112V16.0921ZM496.805 9.6019C496.797 9.31239 496.876 9.02715 497.032 8.78237C497.187 8.53758 497.412 8.34427 497.678 8.22693C497.944 8.10959 498.239 8.07351 498.526 8.12326C498.813 8.17302 499.078 8.30637 499.289 8.50641C499.499 8.70644 499.645 8.96416 499.708 9.24689C499.771 9.52962 499.749 9.82462 499.643 10.0945C499.538 10.3644 499.354 10.597 499.115 10.7629C498.877 10.9287 498.594 11.0203 498.303 11.0261C498.11 11.0393 497.917 11.0127 497.735 10.9478C497.553 10.883 497.386 10.7815 497.245 10.6495C497.105 10.5176 496.993 10.3581 496.917 10.1811C496.841 10.0041 496.803 9.81342 496.805 9.62102V9.6019ZM496.805 11.7048H499.686V20.4794H496.805V11.7048ZM510.146 16.0921C510.146 18.9596 508.869 20.5941 506.679 20.5941C506.117 20.63 505.558 20.4934 505.077 20.2028C504.596 19.9121 504.216 19.4815 503.989 18.9692H503.932V23.2896H501.05V11.6856H503.932V13.2532H503.989C504.206 12.7324 504.578 12.2906 505.056 11.9879C505.534 11.6852 506.094 11.5362 506.659 11.5614C508.869 11.5996 510.184 13.2437 510.184 16.1112L510.146 16.0921ZM507.265 16.0921C507.265 14.6966 506.621 13.8076 505.612 13.8076C504.604 13.8076 503.96 14.7061 503.951 16.0921C503.941 17.4781 504.604 18.367 505.612 18.367C506.621 18.367 507.265 17.4972 507.265 16.1112V16.0921ZM515.093 11.504C517.484 11.504 518.935 12.6319 519.002 14.4385H516.38C516.38 13.8172 515.861 13.4253 515.064 13.4253C514.267 13.4253 513.911 13.7311 513.911 14.1804C513.911 14.6296 514.228 14.773 514.872 14.9068L516.716 15.2796C518.474 15.6524 519.223 16.3597 519.223 17.6883C519.223 19.5044 517.561 20.6706 515.112 20.6706C512.663 20.6706 511.058 19.5044 510.934 17.717H513.709C513.796 18.367 514.315 18.7493 515.16 18.7493C516.005 18.7493 516.389 18.4721 516.389 18.0133C516.389 17.5545 516.12 17.4589 515.429 17.3156L513.767 16.9619C512.048 16.6082 511.145 15.7002 511.145 14.362C511.164 12.6415 512.711 11.5232 515.093 11.5232V11.504ZM528.837 20.4603H526.061V18.8258H526.004C525.851 19.3746 525.515 19.8549 525.05 20.187C524.585 20.5191 524.02 20.683 523.449 20.6515C523.011 20.6762 522.573 20.6072 522.164 20.449C521.756 20.2908 521.386 20.0472 521.08 19.7346C520.774 19.422 520.539 19.0477 520.391 18.637C520.243 18.2262 520.185 17.7887 520.222 17.3538V11.6856H523.103V16.6943C523.103 17.7361 523.641 18.2905 524.534 18.2905C524.744 18.2909 524.951 18.2468 525.142 18.1611C525.333 18.0753 525.503 17.9499 525.641 17.7934C525.78 17.6368 525.883 17.4526 525.943 17.2531C526.004 17.0537 526.022 16.8436 525.994 16.6369V11.6856H528.876L528.837 20.4603ZM530.23 11.6856H533.015V13.3775H533.073C533.226 12.836 533.555 12.3602 534.009 12.0247C534.462 11.6891 535.015 11.5128 535.58 11.5232C536.155 11.4773 536.726 11.6486 537.18 12.0028C537.634 12.357 537.937 12.8683 538.029 13.4348H538.087C538.261 12.8622 538.622 12.3636 539.112 12.0175C539.603 11.6714 540.195 11.4975 540.796 11.5232C541.187 11.5101 541.578 11.5791 541.941 11.7259C542.304 11.8727 542.632 12.0939 542.904 12.3752C543.176 12.6565 543.385 12.9915 543.518 13.3585C543.651 13.7255 543.706 14.1162 543.677 14.5054V20.4794H540.796V15.2701C540.796 14.3142 540.363 13.8745 539.556 13.8745C539.377 13.873 539.198 13.9099 539.034 13.9827C538.87 14.0556 538.723 14.1626 538.604 14.2967C538.484 14.4308 538.395 14.5888 538.343 14.76C538.29 14.9312 538.275 15.1116 538.298 15.2892V20.4794H535.561V15.2318C535.561 14.3524 535.129 13.8745 534.341 13.8745C534.159 13.8746 533.979 13.913 533.813 13.9873C533.647 14.0616 533.499 14.1701 533.378 14.3056C533.258 14.4411 533.167 14.6005 533.113 14.7734C533.059 14.9462 533.042 15.1285 533.064 15.3083V20.4794H530.182L530.23 11.6856Z" fill="#1D2130"/>
<path d="M454.581 9.41078C454.092 8.29853 453.445 7.26199 452.66 6.33297C451.499 4.91864 450.051 3.76499 448.41 2.94795C446.769 2.13091 444.972 1.669 443.139 1.59262C441.305 1.51624 439.476 1.82712 437.772 2.50481C436.068 3.1825 434.528 4.21162 433.252 5.52445C431.977 6.83728 430.995 8.40405 430.372 10.1216C429.749 11.8392 429.498 13.6687 429.637 15.4896C429.775 17.3105 430.299 19.0816 431.175 20.6863C432.051 22.291 433.259 23.693 434.718 24.7999C435.655 25.5243 436.689 26.1132 437.792 26.5491C439.337 27.1793 440.991 27.504 442.661 27.5049C446.109 27.4973 449.413 26.1297 451.849 23.7019C454.285 21.2741 455.654 17.9841 455.657 14.5532C455.659 12.7835 455.293 11.0325 454.581 9.41078ZM442.652 4.22055C444.152 4.22039 445.633 4.54663 446.993 5.1764C446.662 5.31898 446.313 5.41856 445.956 5.47271C444.781 5.64198 443.692 6.18489 442.853 7.02038C442.013 7.85588 441.468 8.93917 441.297 10.1086C441.223 10.7644 440.923 11.3745 440.449 11.8359C439.975 12.2974 439.355 12.5819 438.694 12.6415C437.519 12.8108 436.431 13.3537 435.591 14.1892C434.752 15.0247 434.206 16.108 434.036 17.2774C433.978 17.901 433.711 18.487 433.277 18.9405C432.529 17.3665 432.192 15.6296 432.3 13.8915C432.407 12.1534 432.954 10.4705 433.891 8.99953C434.828 7.52854 436.123 6.31721 437.656 5.4783C439.19 4.63938 440.911 4.20014 442.661 4.20144L442.652 4.22055ZM434.708 21.2441C434.824 21.139 434.939 21.0434 435.054 20.9287C435.909 20.1042 436.457 19.0159 436.61 17.8413C436.672 17.1811 436.968 16.5644 437.446 16.1017C437.905 15.6258 438.523 15.3335 439.184 15.2797C440.359 15.1104 441.448 14.5675 442.288 13.732C443.127 12.8965 443.673 11.8132 443.843 10.6438C443.884 9.95324 444.182 9.30262 444.678 8.81816C445.149 8.35157 445.773 8.06984 446.436 8.02481C447.516 7.877 448.522 7.39942 449.318 6.65796C450.223 7.40549 450.99 8.30478 451.584 9.3152C451.548 9.36428 451.506 9.40917 451.46 9.44902C451.001 9.92904 450.384 10.2278 449.721 10.2902C448.545 10.4565 447.455 10.9984 446.614 11.8345C445.774 12.6705 445.23 13.7554 445.063 14.926C444.995 15.584 444.701 16.1985 444.23 16.6654C443.759 17.1323 443.14 17.4228 442.479 17.4877C441.3 17.6556 440.208 18.1975 439.363 19.0326C438.519 19.8678 437.968 20.9518 437.792 22.1235C437.74 22.5907 437.579 23.0392 437.321 23.433C436.335 22.8507 435.453 22.1113 434.708 21.2441ZM442.652 24.9337C441.677 24.9347 440.707 24.7996 439.77 24.5322C440.091 23.9377 440.299 23.2898 440.385 22.6205C440.452 21.964 440.745 21.3506 441.214 20.884C441.683 20.4173 442.299 20.1259 442.959 20.0589C444.136 19.8915 445.227 19.3495 446.068 18.5138C446.91 17.6781 447.457 16.5938 447.627 15.423C447.694 14.7665 447.987 14.1531 448.456 13.6865C448.925 13.2198 449.542 12.9284 450.201 12.8614C451.087 12.7467 451.931 12.4186 452.66 11.9055C453.065 13.4329 453.113 15.0322 452.8 16.5809C452.488 18.1296 451.823 19.5864 450.856 20.8396C449.89 22.0928 448.648 23.1091 447.226 23.8105C445.804 24.5119 444.239 24.8798 442.652 24.8859V24.9337Z" fill="#1D2130"/>
</g>
<g opacity="0.6">
<path d="M667.487 21.5465C666.919 21.577 666.357 21.4169 665.892 21.092C665.697 20.9492 665.541 20.7617 665.436 20.5456C665.331 20.3295 665.281 20.0914 665.29 19.8518V11.0755C665.285 11.0383 665.289 11.0006 665.301 10.9652C665.314 10.9298 665.334 10.8976 665.361 10.8712C665.387 10.8447 665.42 10.8246 665.455 10.8124C665.491 10.8003 665.529 10.7963 665.567 10.8009H667.172C667.353 10.8009 667.439 10.8956 667.439 11.0755V19.1701C667.439 19.5299 667.602 19.7098 667.936 19.7098C668.078 19.7156 668.22 19.6996 668.356 19.6624C668.547 19.6624 668.653 19.7192 668.662 19.8897L668.805 21.0731C668.812 21.1076 668.812 21.1431 668.804 21.1774C668.795 21.2116 668.78 21.2437 668.758 21.2715C668.736 21.2993 668.709 21.3222 668.678 21.3386C668.646 21.355 668.612 21.3645 668.576 21.3666C668.225 21.4816 667.857 21.5423 667.487 21.5465Z" fill="#1D2130"/>
<path d="M676.515 20.5335C675.709 21.1938 674.695 21.555 673.649 21.555C672.603 21.555 671.59 21.1938 670.783 20.5335C670.074 19.8244 669.677 18.8666 669.677 17.8684C669.677 16.8703 670.074 15.9125 670.783 15.2033C671.591 14.5464 672.604 14.1874 673.649 14.1874C674.694 14.1874 675.707 14.5464 676.515 15.2033C677.208 15.919 677.594 16.8722 677.594 17.8637C677.594 18.8552 677.208 19.8084 676.515 20.524V20.5335ZM672.293 19.2838C672.667 19.6198 673.154 19.8058 673.659 19.8058C674.164 19.8058 674.651 19.6198 675.025 19.2838C675.364 18.8979 675.55 18.4036 675.55 17.8921C675.55 17.3806 675.364 16.8863 675.025 16.5004C674.651 16.1644 674.164 15.9784 673.659 15.9784C673.154 15.9784 672.667 16.1644 672.293 16.5004C671.954 16.8863 671.767 17.3806 671.767 17.8921C671.767 18.4036 671.954 18.8979 672.293 19.2838Z" fill="#1D2130"/>
<path d="M686.432 14.427C686.613 14.427 686.699 14.5216 686.699 14.7015V21.4897C686.716 21.9478 686.63 22.4039 686.446 22.8248C686.263 23.2456 685.987 23.6207 685.639 23.9228C684.866 24.5755 683.873 24.9138 682.859 24.8695C681.943 24.9014 681.039 24.6535 680.27 24.1595C679.941 23.9457 679.661 23.6673 679.445 23.3416C679.23 23.0159 679.085 22.6498 679.018 22.266C679.018 22.0766 679.018 21.9914 679.276 21.9914H680.881C680.949 21.9937 681.015 22.0155 681.071 22.0541C681.127 22.0928 681.171 22.1466 681.196 22.2092C681.301 22.4967 681.508 22.7361 681.779 22.8814C682.11 23.0503 682.477 23.1349 682.849 23.1275C683.074 23.1397 683.298 23.1074 683.51 23.0327C683.721 22.9579 683.916 22.8421 684.082 22.692C684.233 22.535 684.351 22.3492 684.428 22.1458C684.506 21.9424 684.54 21.7257 684.531 21.5086V20.9121C683.956 21.331 683.257 21.5476 682.544 21.5275C682.044 21.5455 681.547 21.4634 681.081 21.286C680.614 21.1087 680.189 20.8398 679.83 20.4956C679.142 19.7894 678.757 18.8457 678.757 17.8636C678.757 16.8815 679.142 15.9378 679.83 15.2317C680.191 14.8905 680.617 14.6242 681.083 14.4486C681.549 14.273 682.045 14.1916 682.544 14.2092C683.277 14.19 683.995 14.4206 684.578 14.8625V14.711C684.574 14.6747 684.578 14.6379 684.59 14.6033C684.601 14.5686 684.621 14.537 684.646 14.5107C684.672 14.4845 684.703 14.4641 684.738 14.4513C684.772 14.4384 684.809 14.4334 684.846 14.4364L686.432 14.427ZM682.725 19.8423C682.971 19.8499 683.216 19.8038 683.442 19.7072C683.668 19.6107 683.87 19.4661 684.034 19.2837C684.352 18.8773 684.524 18.3777 684.524 17.8636C684.524 17.3495 684.352 16.85 684.034 16.4435C683.871 16.2636 683.67 16.1212 683.446 16.0263C683.221 15.9315 682.979 15.8864 682.735 15.8944C682.486 15.8867 682.238 15.9326 682.009 16.029C681.779 16.1255 681.574 16.2701 681.407 16.453C681.055 16.8418 680.87 17.3512 680.891 17.8731C680.874 18.3898 681.054 18.8939 681.397 19.2837C681.565 19.4661 681.77 19.6104 682 19.7068C682.229 19.8032 682.476 19.8494 682.725 19.8423Z" fill="#1D2130"/>
<path d="M694.944 20.5334C694.136 21.1904 693.123 21.5494 692.078 21.5494C691.033 21.5494 690.02 21.1904 689.212 20.5334C688.519 19.8162 688.132 18.8615 688.132 17.8684C688.132 16.8753 688.519 15.9205 689.212 15.2033C690.021 14.5481 691.033 14.1901 692.078 14.1901C693.123 14.1901 694.135 14.5481 694.944 15.2033C695.637 15.919 696.023 16.8721 696.023 17.8636C696.023 18.8552 695.637 19.8083 694.944 20.524V20.5334ZM690.712 19.2837C690.895 19.4564 691.111 19.5913 691.347 19.6807C691.583 19.7701 691.835 19.8122 692.088 19.8045C692.339 19.8109 692.589 19.7682 692.823 19.6789C693.057 19.5895 693.272 19.4553 693.454 19.2837C693.787 18.8952 693.97 18.4019 693.97 17.892C693.97 17.3821 693.787 16.8889 693.454 16.5003C693.272 16.3288 693.057 16.1945 692.823 16.1052C692.589 16.0158 692.339 15.9732 692.088 15.9796C691.835 15.9719 691.583 16.014 691.347 16.1034C691.111 16.1927 690.895 16.3277 690.712 16.5003C690.379 16.8889 690.196 17.3821 690.196 17.892C690.196 18.4019 690.379 18.8952 690.712 19.2837Z" fill="#1D2130"/>
<path d="M699.473 12.8175C699.22 13.0366 698.896 13.1573 698.56 13.1573C698.225 13.1573 697.9 13.0366 697.648 12.8175C697.533 12.7105 697.442 12.5813 697.38 12.4381C697.317 12.2948 697.285 12.1404 697.285 11.9844C697.285 11.8284 697.317 11.674 697.38 11.5308C697.442 11.3875 697.533 11.2584 697.648 11.1513C697.903 10.9377 698.226 10.8205 698.56 10.8205C698.894 10.8205 699.217 10.9377 699.473 11.1513C699.587 11.2584 699.678 11.3875 699.741 11.5308C699.803 11.674 699.835 11.8284 699.835 11.9844C699.835 12.1404 699.803 12.2948 699.741 12.4381C699.678 12.5813 699.587 12.7105 699.473 12.8175ZM699.673 21.5465C699.105 21.5741 698.544 21.4143 698.078 21.0921C697.886 20.9472 697.733 20.759 697.63 20.5432C697.527 20.3275 697.477 20.0904 697.485 19.8518V14.7016C697.481 14.6644 697.485 14.6267 697.497 14.5913C697.509 14.5559 697.53 14.5237 697.556 14.4972C697.583 14.4708 697.615 14.4507 697.651 14.4385C697.687 14.4263 697.725 14.4224 697.762 14.427H699.367C699.549 14.427 699.635 14.5217 699.635 14.7016V19.1702C699.635 19.5299 699.797 19.7098 700.122 19.7098C700.267 19.715 700.412 19.699 700.552 19.6625C700.743 19.6625 700.848 19.7193 700.858 19.8897L701.001 21.0731C701.008 21.1076 701.007 21.1432 700.999 21.1774C700.991 21.2116 700.976 21.2438 700.954 21.2716C700.932 21.2994 700.905 21.3222 700.873 21.3386C700.842 21.355 700.807 21.3646 700.772 21.3666C700.417 21.4824 700.047 21.543 699.673 21.5465Z" fill="#1D2130"/>
<path d="M706.905 14.1998C707.407 14.1802 707.907 14.2606 708.376 14.4362C708.846 14.6119 709.275 14.8792 709.638 15.2223C710.313 15.9408 710.689 16.8864 710.689 17.8684C710.689 18.8505 710.313 19.7961 709.638 20.5146C709.276 20.8607 708.848 21.1307 708.378 21.308C707.909 21.4854 707.408 21.5665 706.905 21.5465C706.19 21.5623 705.489 21.3462 704.909 20.9311V24.3489C704.909 24.5287 704.813 24.614 704.632 24.614H703.027C702.99 24.6207 702.952 24.6186 702.917 24.6076C702.881 24.5967 702.849 24.5774 702.822 24.5513C702.796 24.5252 702.776 24.4931 702.765 24.4578C702.754 24.4226 702.752 24.3852 702.759 24.3489V16.5856C702.77 16.5097 702.764 16.4322 702.739 16.3593C702.715 16.2865 702.674 16.2203 702.619 16.166C702.564 16.1117 702.497 16.0709 702.424 16.0468C702.35 16.0226 702.272 16.0159 702.195 16.027H701.88C701.67 16.027 701.565 15.9513 701.565 15.7998V14.6826C701.56 14.6135 701.579 14.5448 701.619 14.4879C701.659 14.4311 701.717 14.3895 701.785 14.3702C702.115 14.2512 702.465 14.1934 702.816 14.1998C703.167 14.1691 703.519 14.2427 703.827 14.4114C704.135 14.5801 704.385 14.8361 704.546 15.1465C704.853 14.8381 705.221 14.595 705.627 14.4322C706.033 14.2694 706.468 14.1904 706.905 14.1998ZM705.415 19.2838C705.585 19.4602 705.79 19.6006 706.017 19.6965C706.243 19.7925 706.487 19.8419 706.733 19.8419C706.98 19.8419 707.224 19.7925 707.45 19.6965C707.677 19.6006 707.881 19.4602 708.052 19.2838C708.411 18.8872 708.599 18.3675 708.577 17.8353C708.602 17.3026 708.413 16.7818 708.052 16.3868C707.881 16.2104 707.677 16.07 707.45 15.974C707.224 15.8781 706.98 15.8287 706.733 15.8287C706.487 15.8287 706.243 15.8781 706.017 15.974C705.79 16.07 705.585 16.2104 705.415 16.3868C705.067 16.7887 704.886 17.3064 704.909 17.8353C704.889 18.3638 705.07 18.8804 705.415 19.2838Z" fill="#1D2130"/>
<path d="M715.198 21.5464C714.34 21.5814 713.49 21.3781 712.743 20.9595C712.443 20.7805 712.187 20.537 711.996 20.2469C711.804 19.9568 711.68 19.6276 711.634 19.2837C711.634 19.0944 711.701 18.9997 711.911 18.9997H713.316C713.383 19.0023 713.447 19.0231 713.503 19.0599C713.559 19.0966 713.603 19.1479 713.631 19.208C713.832 19.7192 714.357 19.9749 715.198 19.9749C715.491 19.9881 715.783 19.9296 716.048 19.8044C716.14 19.7635 716.218 19.6987 716.275 19.617C716.333 19.5353 716.366 19.4398 716.373 19.3405C716.373 19.0944 716.22 18.924 715.914 18.8104C715.552 18.6908 715.177 18.6114 714.797 18.5737C714.346 18.5231 713.899 18.4441 713.459 18.337C713.031 18.241 712.642 18.02 712.341 17.7027C712.164 17.487 712.034 17.2375 711.959 16.9699C711.883 16.7022 711.864 16.422 711.903 16.1467C711.942 15.8715 712.037 15.607 712.183 15.3698C712.329 15.1325 712.523 14.9276 712.752 14.7678C713.441 14.3331 714.249 14.1213 715.064 14.1619C715.854 14.1354 716.635 14.3289 717.319 14.7204C717.594 14.8752 717.832 15.0889 718.014 15.346C718.195 15.6032 718.317 15.8972 718.37 16.2068C718.37 16.3962 718.284 16.4909 718.112 16.4909H716.698C716.638 16.4943 716.579 16.4799 716.528 16.4495C716.477 16.4191 716.436 16.3741 716.411 16.3204C716.317 16.0962 716.139 15.9165 715.914 15.8187C715.661 15.6874 715.378 15.6222 715.093 15.6293C714.813 15.6142 714.533 15.6696 714.281 15.7903C714.192 15.8243 714.115 15.884 714.06 15.9616C714.006 16.0392 713.976 16.1312 713.975 16.2258C713.981 16.3552 714.029 16.4793 714.111 16.5799C714.194 16.6804 714.307 16.7521 714.434 16.7843C714.8 16.9214 715.182 17.0166 715.57 17.0684C716.017 17.1266 716.461 17.2088 716.898 17.3145C717.327 17.4106 717.716 17.6315 718.016 17.9488C718.177 18.1237 718.301 18.3283 718.381 18.5509C718.462 18.7735 718.497 19.0097 718.484 19.2459C718.493 19.5731 718.415 19.8969 718.259 20.1857C718.104 20.4744 717.875 20.7182 717.596 20.8932C716.882 21.3473 716.046 21.5751 715.198 21.5464Z" fill="#1D2130"/>
<path d="M728.583 21.0731C728.588 21.1067 728.587 21.1411 728.578 21.1741C728.57 21.2072 728.555 21.2383 728.535 21.2656C728.514 21.293 728.489 21.316 728.459 21.3333C728.43 21.3506 728.397 21.362 728.363 21.3666C728.014 21.4794 727.65 21.5401 727.283 21.5465C726.92 21.5837 726.554 21.5275 726.219 21.3832C725.884 21.2389 725.593 21.0114 725.373 20.7228C724.698 21.2978 723.825 21.5928 722.936 21.5465C722.524 21.5653 722.112 21.4984 721.727 21.35C721.342 21.2016 720.992 20.9751 720.701 20.6849C720.411 20.3809 720.187 20.0221 720.041 19.63C719.895 19.238 719.83 18.8207 719.851 18.4033V14.7015C719.851 14.5216 719.937 14.427 720.118 14.427H721.723C721.905 14.427 721.991 14.5216 721.991 14.7015V18.1193C721.973 18.5451 722.12 18.9615 722.401 19.2837C722.542 19.4314 722.712 19.5475 722.902 19.6242C723.092 19.701 723.295 19.7366 723.5 19.7287C723.709 19.7378 723.919 19.7057 724.115 19.6342C724.312 19.5627 724.493 19.4532 724.646 19.3121C724.792 19.1635 724.905 18.9868 724.979 18.793C725.053 18.5992 725.086 18.3925 725.076 18.1855V14.7015C725.076 14.5216 725.162 14.427 725.344 14.427H726.968C727.149 14.427 727.235 14.5216 727.235 14.7015V19.1607C727.235 19.5299 727.398 19.7098 727.713 19.7098C727.861 19.7155 728.009 19.6995 728.153 19.6624C728.189 19.6524 728.227 19.6506 728.264 19.6572C728.301 19.6637 728.335 19.6785 728.366 19.7004C728.396 19.7222 728.421 19.7506 728.439 19.7834C728.456 19.8162 728.466 19.8525 728.468 19.8897L728.583 21.0731Z" fill="#1D2130"/>
<path d="M743.763 21.0731C743.772 21.107 743.773 21.1424 743.766 21.1766C743.759 21.2109 743.744 21.2432 743.723 21.2713C743.702 21.2993 743.675 21.3224 743.644 21.3389C743.613 21.3554 743.579 21.3649 743.543 21.3666C743.188 21.4811 742.818 21.5417 742.445 21.5465C741.877 21.5755 741.315 21.4156 740.849 21.0921C740.648 20.9535 740.484 20.7678 740.372 20.5514C740.261 20.3351 740.205 20.0948 740.209 19.8518V17.627C740.229 17.2024 740.086 16.7862 739.808 16.4625C739.674 16.3145 739.508 16.1979 739.323 16.1209C739.138 16.044 738.938 16.0087 738.738 16.0175C738.557 16.0108 738.377 16.0447 738.212 16.1169C738.046 16.1891 737.9 16.2975 737.783 16.4341C737.53 16.7513 737.402 17.1478 737.42 17.5512V21.0447C737.42 21.2246 737.334 21.3193 737.152 21.3193H735.538C735.5 21.3239 735.462 21.32 735.426 21.3078C735.391 21.2956 735.358 21.2755 735.331 21.249C735.305 21.2226 735.284 21.1904 735.272 21.155C735.26 21.1196 735.256 21.0819 735.26 21.0447V17.627C735.281 17.2071 735.149 16.7938 734.888 16.4625C734.771 16.3233 734.625 16.2113 734.46 16.1344C734.295 16.0575 734.115 16.0176 733.933 16.0175C733.738 16.0097 733.543 16.0428 733.362 16.1146C733.181 16.1864 733.017 16.2953 732.882 16.4341C732.608 16.7412 732.468 17.1424 732.49 17.5512V21.0447C732.495 21.0819 732.491 21.1196 732.478 21.155C732.466 21.1904 732.446 21.2226 732.419 21.249C732.392 21.2755 732.36 21.2956 732.324 21.3078C732.288 21.32 732.25 21.3239 732.213 21.3193H730.656C730.474 21.3193 730.388 21.2246 730.388 21.0447V16.5856C730.399 16.5096 730.393 16.4322 730.368 16.3593C730.344 16.2864 730.303 16.2202 730.248 16.166C730.193 16.1117 730.126 16.0709 730.053 16.0467C729.979 16.0226 729.901 16.0159 729.824 16.027H729.509C729.299 16.027 729.194 15.9513 729.194 15.7998V14.6826C729.189 14.6135 729.208 14.5448 729.248 14.4879C729.288 14.4311 729.346 14.3895 729.414 14.3702C729.744 14.2512 730.094 14.1934 730.445 14.1998C730.783 14.1713 731.122 14.238 731.423 14.3921C731.723 14.5462 731.974 14.7815 732.146 15.0708C732.468 14.7681 732.85 14.5345 733.268 14.3846C733.685 14.2347 734.129 14.1718 734.573 14.1998C735.003 14.179 735.432 14.259 735.826 14.4333C736.219 14.6077 736.566 14.8715 736.837 15.2033C737.153 14.8628 737.542 14.5961 737.974 14.4226C738.407 14.249 738.874 14.1729 739.34 14.1998C739.757 14.1805 740.173 14.247 740.563 14.3953C740.953 14.5436 741.307 14.7704 741.604 15.0613C741.894 15.3647 742.119 15.7234 742.266 16.1156C742.412 16.5079 742.476 16.9254 742.454 17.343V19.1702C742.454 19.5299 742.617 19.7098 742.922 19.7098C743.071 19.7167 743.219 19.7007 743.362 19.6625C743.559 19.6625 743.664 19.7382 743.677 19.8897L743.763 21.0731Z" fill="#1D2130"/>
<path d="M631.737 13.1963C632.442 10.3889 634.075 7.89585 636.375 6.11418C638.675 4.33251 641.51 3.36462 644.429 3.36462C647.349 3.36462 650.184 4.33251 652.484 6.11418C654.784 7.89585 656.417 10.3889 657.121 13.1963H655.975C654.041 13.168 652.147 13.7408 650.558 14.8341C650.466 14.8999 650.371 14.96 650.271 15.014H650.138C650.038 14.96 649.943 14.8999 649.851 14.8341C648.248 13.7661 646.361 13.1957 644.429 13.1957C642.498 13.1957 640.61 13.7661 639.008 14.8341C638.916 14.8999 638.82 14.96 638.721 15.014H638.587C638.488 14.96 638.392 14.8999 638.301 14.8341C636.712 13.7408 634.818 13.168 632.884 13.1963H631.737ZM653.911 19.1323C654.5 18.6781 655.229 18.4405 655.975 18.4601H657.513V15.4211H655.975C654.662 15.4054 653.378 15.8105 652.316 16.5761C651.718 17.0128 650.995 17.2485 650.252 17.2485C649.51 17.2485 648.787 17.0128 648.189 16.5761C647.1 15.8248 645.804 15.422 644.477 15.422C643.15 15.422 641.855 15.8248 640.766 16.5761C640.168 17.0128 639.445 17.2485 638.702 17.2485C637.959 17.2485 637.236 17.0128 636.638 16.5761C635.563 15.8007 634.261 15.3951 632.932 15.4211H631.346V18.4601H632.884C633.63 18.4405 634.359 18.6781 634.947 19.1323C636.035 19.8842 637.328 20.2873 638.654 20.2873C639.98 20.2873 641.274 19.8842 642.361 19.1323C642.95 18.6795 643.679 18.4421 644.425 18.4601C645.171 18.439 645.9 18.6767 646.488 19.1323C647.577 19.8837 648.873 20.2865 650.2 20.2865C651.527 20.2865 652.822 19.8837 653.911 19.1323ZM653.911 24.5666C654.5 24.1124 655.229 23.8748 655.975 23.8944H657.513V20.8554H655.975C654.662 20.8397 653.378 21.2448 652.316 22.0104C651.718 22.4471 650.995 22.6828 650.252 22.6828C649.51 22.6828 648.787 22.4471 648.189 22.0104C647.1 21.2591 645.804 20.8563 644.477 20.8563C643.15 20.8563 641.855 21.2591 640.766 22.0104C640.168 22.4471 639.445 22.6828 638.702 22.6828C637.959 22.6828 637.236 22.4471 636.638 22.0104C635.563 21.235 634.261 20.8293 632.932 20.8554H631.346V23.8944H632.884C633.63 23.8748 634.359 24.1124 634.947 24.5666C636.035 25.3185 637.328 25.7216 638.654 25.7216C639.98 25.7216 641.274 25.3185 642.361 24.5666C642.95 24.1138 643.679 23.8764 644.425 23.8944C645.171 23.8732 645.9 24.111 646.488 24.5666C647.577 25.318 648.873 25.7208 650.2 25.7208C651.527 25.7208 652.822 25.318 653.911 24.5666Z" fill="#1D2130"/>
</g>
<g opacity="0.6">
<path d="M867.001 9.0573H870.084V21.4833H867.001V9.0573ZM871.313 16.8092C871.313 13.7314 873.234 11.8866 876.116 11.8866C878.997 11.8866 880.918 13.7314 880.918 16.8092C880.918 19.887 879.064 21.7509 876.116 21.7509C873.167 21.7509 871.313 19.9539 871.313 16.8092ZM877.864 16.8092C877.864 15.1174 877.201 14.1233 876.145 14.1233C875.088 14.1233 874.435 15.0791 874.435 16.8092C874.435 18.5393 875.088 19.4856 876.145 19.4856C877.201 19.4856 877.883 18.5393 877.883 16.8188L877.864 16.8092ZM882.148 22.1237H885.125C885.261 22.4427 885.497 22.7088 885.799 22.8814C886.101 23.054 886.451 23.1236 886.796 23.0795C887.978 23.0795 888.593 22.4487 888.593 21.5119V19.7914H888.602C888.348 20.3272 887.936 20.7737 887.422 21.0723C886.908 21.3708 886.315 21.5075 885.721 21.4642C883.464 21.4642 881.965 19.7532 881.965 16.8092C881.965 13.8652 883.396 12.03 885.807 12.03C886.416 11.9975 887.02 12.1539 887.536 12.4774C888.053 12.801 888.455 13.2758 888.689 13.8365H888.602V12.1064H891.657V21.4164C891.657 23.6626 889.659 25.0677 886.72 25.0677C884.049 25.0581 882.34 23.8442 882.167 22.1332L882.148 22.1237ZM888.602 16.8092C888.602 15.3085 887.911 14.3622 886.816 14.3622C885.721 14.3622 885.048 15.3181 885.048 16.8092C885.048 18.3003 885.711 19.1797 886.816 19.1797C887.92 19.1797 888.602 18.3672 888.602 16.8092ZM892.876 16.8092C892.876 13.7314 894.797 11.8866 897.679 11.8866C900.56 11.8866 902.481 13.7314 902.481 16.8092C902.481 19.887 900.618 21.7509 897.679 21.7509C894.74 21.7509 892.896 19.9539 892.896 16.8092H892.876ZM899.427 16.8092C899.427 15.1174 898.755 14.1233 897.708 14.1233C896.661 14.1233 895.998 15.0791 895.998 16.8092C895.998 18.5393 896.651 19.4856 897.708 19.4856C898.764 19.4856 899.446 18.5393 899.446 16.8188L899.427 16.8092ZM903.73 9.8411C903.717 9.52855 903.798 9.21916 903.962 8.95273C904.127 8.68629 904.368 8.475 904.654 8.34602C904.941 8.21705 905.259 8.17631 905.569 8.22902C905.879 8.28174 906.166 8.42551 906.393 8.64184C906.62 8.85817 906.777 9.13716 906.844 9.44292C906.91 9.74868 906.883 10.0672 906.766 10.3576C906.649 10.6479 906.447 10.8968 906.187 11.0722C905.927 11.2476 905.62 11.3415 905.305 11.3418C905.104 11.3469 904.904 11.3122 904.717 11.2397C904.53 11.1673 904.359 11.0586 904.214 10.9199C904.069 10.7812 903.954 10.6152 903.874 10.4317C903.794 10.2481 903.752 10.0506 903.749 9.85065L903.73 9.8411ZM903.73 12.0969H906.852V21.5215H903.778L903.73 12.0969ZM918.08 16.8092C918.08 19.8775 916.697 21.6553 914.344 21.6553C913.741 21.6923 913.142 21.5444 912.626 21.2316C912.111 20.9188 911.705 20.4561 911.462 19.9061H911.404V24.5515H908.321V12.1256H911.385V13.8078H911.443C911.677 13.247 912.08 12.7717 912.595 12.4467C913.111 12.1218 913.715 11.9629 914.324 11.9917C916.745 11.9726 918.138 13.7409 918.138 16.8188L918.08 16.8092ZM914.939 16.8092C914.939 15.3181 914.238 14.3527 913.153 14.3527C912.067 14.3527 911.385 15.3085 911.376 16.8092C911.366 18.3099 912.067 19.2562 913.153 19.2562C914.238 19.2562 914.997 18.3672 914.997 16.8188L914.939 16.8092ZM923.343 11.877C925.927 11.877 927.531 13.091 927.55 15.0409H924.736C924.736 14.3622 924.17 13.9417 923.324 13.9417C922.479 13.9417 922.076 14.2667 922.076 14.7541C922.076 15.2416 922.431 15.3945 923.142 15.5379L925.12 15.9394C927.041 16.3408 927.81 17.1055 927.81 18.5297C927.81 20.4414 926.033 21.7413 923.392 21.7413C920.75 21.7413 919.031 20.4796 918.906 18.5584H921.893C921.98 19.2562 922.537 19.6672 923.44 19.6672C924.342 19.6672 924.765 19.3804 924.765 18.8738C924.765 18.3672 924.477 18.2812 923.737 18.1283L921.951 17.7555C920.097 17.3636 919.127 16.3982 919.127 14.9549C919.185 13.0814 920.798 11.8866 923.401 11.8866L923.343 11.877ZM938.135 21.5119H935.148V19.7436H935.09C934.923 20.3335 934.559 20.849 934.058 21.2052C933.557 21.5614 932.949 21.737 932.334 21.7031C931.87 21.7182 931.407 21.6353 930.978 21.4601C930.548 21.2848 930.16 21.0211 929.84 20.6863C929.52 20.3514 929.274 19.9529 929.12 19.517C928.965 19.0811 928.905 18.6176 928.943 18.1569V12.1064H932.026V17.4974C932.026 18.6062 932.612 19.2084 933.573 19.2084C933.798 19.2067 934.021 19.1569 934.225 19.0624C934.429 18.9679 934.611 18.8308 934.757 18.6605C934.904 18.4901 935.012 18.2905 935.075 18.075C935.137 17.8595 935.152 17.6332 935.119 17.4114V12.1064H938.193L938.135 21.5119ZM939.624 12.0969H942.621V13.913H942.688C942.854 13.3312 943.208 12.8205 943.697 12.4607C944.185 12.101 944.779 11.9125 945.387 11.9248C945.997 11.8721 946.604 12.0476 947.091 12.417C947.578 12.7865 947.909 13.3233 948.019 13.9225H948.153C948.345 13.3201 948.732 12.7976 949.253 12.4364C949.774 12.0751 950.4 11.8953 951.035 11.9248C951.456 11.9089 951.877 11.9817 952.268 12.1385C952.659 12.2954 953.013 12.5327 953.306 12.835C953.599 13.1372 953.824 13.4976 953.967 13.8926C954.111 14.2876 954.168 14.7082 954.137 15.1269V21.5215H951.035V15.9107C951.035 14.9549 950.583 14.4196 949.709 14.4196C949.515 14.4164 949.323 14.455 949.146 14.5327C948.968 14.6104 948.81 14.7254 948.681 14.8697C948.552 15.0141 948.457 15.1844 948.4 15.369C948.344 15.5537 948.329 15.7482 948.355 15.9394V21.5215H945.416V15.882C945.416 14.9262 944.945 14.4196 944.1 14.4196C943.904 14.418 943.71 14.4582 943.531 14.5374C943.352 14.6166 943.192 14.733 943.062 14.8787C942.932 15.0245 942.835 15.1962 942.777 15.3825C942.719 15.5687 942.702 15.7651 942.726 15.9585V21.5215H939.643L939.624 12.0969Z" fill="#1D2130"/>
<path d="M860.901 9.86986C860.901 7.96743 860.324 6.10933 859.245 4.53894C858.166 2.96854 856.636 1.75907 854.854 1.06895C853.073 0.378822 851.123 0.240223 849.261 0.671301C847.399 1.10238 845.712 2.08303 844.419 3.48482H832.432V28.6617H857.741V16.8953C858.735 16.0111 859.53 14.9284 860.074 13.7179C860.619 12.5073 860.9 11.1961 860.901 9.86986ZM856.032 9.86986C856.033 10.7815 855.764 11.6732 855.256 12.4321C854.748 13.191 854.026 13.783 853.18 14.1331C852.335 14.4833 851.403 14.5759 850.505 14.3992C849.606 14.2225 848.78 13.7845 848.132 13.1406C847.483 12.4966 847.041 11.6757 846.862 10.7817C846.683 9.88779 846.774 8.96095 847.124 8.11854C847.474 7.27614 848.067 6.55603 848.829 6.04936C849.59 5.5427 850.486 5.27225 851.402 5.27225C852.628 5.27224 853.804 5.75633 854.672 6.61827C855.54 7.48022 856.029 8.64962 856.032 9.86986ZM852.872 23.8156H837.302V8.33095H842.047C841.955 8.83894 841.907 9.35376 841.903 9.86986C841.905 12.3763 842.907 14.7793 844.688 16.5515C846.469 18.3238 848.883 19.3206 851.402 19.3232C851.894 19.3206 852.386 19.279 852.872 19.1989V23.8156Z" fill="#1D2130"/>
</g>
<g opacity="0.6">
<path d="M1070.84 7.06581H1073.72V21.0093H1070.84V7.06581Z" fill="#1D2130"/>
<path d="M1075.34 16.2328C1075.34 15.2296 1075.63 14.249 1076.19 13.4153C1076.74 12.5816 1077.53 11.9323 1078.46 11.5497C1079.38 11.1672 1080.39 11.0686 1081.37 11.2664C1082.35 11.4642 1083.25 11.9496 1083.96 12.661C1084.66 13.3724 1085.14 14.2777 1085.33 15.2623C1085.52 16.2469 1085.42 17.2664 1085.03 18.1916C1084.64 19.1168 1083.99 19.9059 1083.16 20.4591C1082.33 21.0123 1081.35 21.3045 1080.35 21.2988C1079.69 21.304 1079.03 21.1763 1078.42 20.9232C1077.81 20.67 1077.25 20.2966 1076.78 19.8248C1076.32 19.3529 1075.95 18.7922 1075.7 18.1754C1075.45 17.5585 1075.33 16.8981 1075.34 16.2328ZM1082.56 16.2328C1082.55 15.8003 1082.41 15.3808 1082.16 15.0267C1081.92 14.6726 1081.57 14.3996 1081.17 14.2419C1080.77 14.0843 1080.33 14.0489 1079.91 14.1402C1079.49 14.2315 1079.1 14.4455 1078.8 14.7553C1078.5 15.0652 1078.3 15.4572 1078.22 15.8823C1078.14 16.3074 1078.19 16.7468 1078.35 17.1455C1078.52 17.5441 1078.8 17.8843 1079.16 18.1236C1079.52 18.3629 1079.94 18.4906 1080.37 18.4908C1080.66 18.4965 1080.95 18.4414 1081.23 18.329C1081.5 18.2165 1081.74 18.0491 1081.94 17.8372C1082.15 17.6253 1082.31 17.3734 1082.41 17.0973C1082.51 16.8213 1082.56 16.527 1082.54 16.2328H1082.56Z" fill="#1D2130"/>
<path d="M1096.77 11.4563V20.5365C1096.77 23.7401 1094.27 25.1007 1091.74 25.1007C1090.85 25.1741 1089.96 24.9963 1089.16 24.5871C1088.37 24.178 1087.7 23.5538 1087.24 22.7848L1089.67 21.376C1089.86 21.7748 1090.18 22.1039 1090.57 22.3194C1090.95 22.5349 1091.4 22.6266 1091.84 22.5821C1092.12 22.6169 1092.4 22.5889 1092.67 22.5001C1092.94 22.4113 1093.19 22.2639 1093.39 22.0684C1093.6 21.8729 1093.76 21.6343 1093.86 21.3694C1093.97 21.1046 1094.01 20.8202 1093.99 20.5365V19.6584C1093.65 20.0668 1093.23 20.3911 1092.75 20.6055C1092.27 20.8199 1091.74 20.9185 1091.21 20.8935C1089.94 20.8935 1088.72 20.3852 1087.82 19.4804C1086.92 18.5755 1086.41 17.3484 1086.41 16.0688C1086.41 14.7892 1086.92 13.562 1087.82 12.6572C1088.72 11.7523 1089.94 11.244 1091.21 11.244C1091.74 11.219 1092.27 11.3176 1092.75 11.532C1093.23 11.7464 1093.65 12.0707 1093.99 12.4792V11.5142L1096.77 11.4563ZM1093.99 16.0398C1094.01 15.5781 1093.89 15.1213 1093.65 14.728C1093.41 14.3346 1093.05 14.0228 1092.64 13.8327C1092.22 13.6425 1091.75 13.5827 1091.3 13.6608C1090.84 13.739 1090.42 13.9516 1090.09 14.2713C1089.76 14.591 1089.53 15.0032 1089.43 15.4548C1089.34 15.9065 1089.38 16.377 1089.55 16.8058C1089.72 17.2346 1090.01 17.6022 1090.39 17.8612C1090.78 18.1202 1091.22 18.2588 1091.68 18.2592C1091.98 18.2809 1092.29 18.2391 1092.57 18.1366C1092.85 18.0341 1093.11 17.873 1093.33 17.6639C1093.54 17.4547 1093.72 17.2021 1093.83 16.9224C1093.94 16.6426 1094 16.342 1093.99 16.0398Z" fill="#1D2130"/>
<path d="M1098.39 16.2328C1098.39 15.2304 1098.68 14.2506 1099.24 13.4173C1099.79 12.584 1100.58 11.9347 1101.5 11.5515C1102.43 11.1684 1103.44 11.0686 1104.42 11.2649C1105.4 11.4611 1106.3 11.9446 1107 12.654C1107.71 13.3635 1108.18 14.2671 1108.38 15.2504C1108.57 16.2337 1108.47 17.2526 1108.09 18.1782C1107.7 19.1037 1107.06 19.8942 1106.23 20.4497C1105.4 21.0052 1104.42 21.3007 1103.42 21.2988C1102.76 21.3052 1102.1 21.1785 1101.49 20.9261C1100.87 20.6737 1100.31 20.3006 1099.84 19.8288C1099.38 19.357 1099.01 18.7958 1098.76 18.1783C1098.51 17.5608 1098.38 16.8994 1098.39 16.2328ZM1105.61 16.2328C1105.6 15.7999 1105.46 15.38 1105.21 15.0257C1104.97 14.6714 1104.62 14.3984 1104.22 14.2411C1103.82 14.0837 1103.38 14.0489 1102.96 14.141C1102.54 14.2331 1102.15 14.448 1101.85 14.7588C1101.55 15.0696 1101.35 15.4625 1101.27 15.8883C1101.19 16.314 1101.24 16.7537 1101.41 17.1521C1101.58 17.5506 1101.86 17.8902 1102.22 18.1283C1102.58 18.3664 1103 18.4925 1103.43 18.4908C1103.72 18.4965 1104.02 18.4414 1104.29 18.329C1104.56 18.2165 1104.8 18.0491 1105.01 17.8372C1105.21 17.6253 1105.37 17.3734 1105.47 17.0973C1105.57 16.8213 1105.62 16.527 1105.6 16.2328H1105.61Z" fill="#1D2130"/>
<path d="M1109.79 8.89916C1109.79 8.55945 1109.89 8.22737 1110.08 7.94491C1110.27 7.66245 1110.53 7.4423 1110.85 7.3123C1111.16 7.18229 1111.5 7.14828 1111.83 7.21455C1112.16 7.28083 1112.47 7.44442 1112.71 7.68463C1112.95 7.92484 1113.11 8.23089 1113.18 8.56407C1113.24 8.89725 1113.21 9.24261 1113.08 9.55646C1112.95 9.87031 1112.73 10.1386 1112.45 10.3273C1112.17 10.516 1111.84 10.6168 1111.5 10.6168C1111.05 10.6117 1110.62 10.4292 1110.3 10.1081C1109.98 9.78711 1109.79 9.35314 1109.79 8.89916ZM1110.07 11.4563H1112.95V21.0093H1110.07V11.4563Z" fill="#1D2130"/>
<path d="M1125.28 16.2328C1125.31 16.8682 1125.22 17.5036 1125.01 18.1027C1124.8 18.7017 1124.47 19.2525 1124.04 19.7233C1123.61 20.1942 1123.1 20.5758 1122.53 20.8462C1121.95 21.1165 1121.33 21.2704 1120.7 21.2988C1120.16 21.3347 1119.63 21.2483 1119.13 21.0461C1118.63 20.844 1118.18 20.5312 1117.82 20.1312V24.8498H1114.94V11.4563H1117.82V12.3537C1118.18 11.9549 1118.63 11.6436 1119.13 11.4431C1119.63 11.2426 1120.16 11.158 1120.7 11.1958C1121.33 11.2243 1121.95 11.3772 1122.52 11.6458C1123.09 11.9143 1123.6 12.2933 1124.03 12.761C1124.46 13.2288 1124.79 13.7761 1125 14.3718C1125.21 14.9675 1125.31 15.5999 1125.28 16.2328ZM1122.4 16.2328C1122.39 15.7847 1122.25 15.3498 1121.99 14.9828C1121.73 14.6158 1121.38 14.333 1120.96 14.1698C1120.54 14.0065 1120.09 13.9702 1119.65 14.0653C1119.22 14.1604 1118.82 14.3826 1118.51 14.7043C1118.2 15.0259 1117.99 15.4325 1117.91 15.8733C1117.82 16.314 1117.87 16.7692 1118.05 17.1817C1118.22 17.5943 1118.52 17.9459 1118.89 18.1925C1119.26 18.4391 1119.7 18.5698 1120.14 18.568C1120.45 18.581 1120.75 18.529 1121.04 18.4153C1121.32 18.3017 1121.58 18.1289 1121.79 17.9084C1122.01 17.6879 1122.17 17.4247 1122.28 17.1359C1122.38 16.8471 1122.42 16.5394 1122.4 16.2328Z" fill="#1D2130"/>
<path d="M1134.05 18.1434C1134.05 20.3435 1132.13 21.2795 1130.09 21.2795C1129.26 21.3546 1128.43 21.1777 1127.7 20.7717C1126.97 20.3658 1126.38 19.7494 1126 19.0022L1128.48 17.5934C1128.58 17.9377 1128.79 18.2377 1129.08 18.4432C1129.38 18.6487 1129.73 18.7472 1130.09 18.7224C1130.77 18.7224 1131.11 18.5101 1131.11 18.1241C1131.11 17.0723 1126.44 17.632 1126.44 14.3222C1126.44 12.2379 1128.18 11.1958 1130.16 11.1958C1130.91 11.1619 1131.66 11.3334 1132.32 11.6918C1132.99 12.0503 1133.54 12.5825 1133.93 13.2318L1131.45 14.5441C1131.34 14.2952 1131.16 14.0834 1130.93 13.9344C1130.71 13.7855 1130.44 13.7056 1130.17 13.7046C1129.67 13.7046 1129.37 13.8976 1129.37 14.2353C1129.37 15.3354 1134.05 14.6117 1134.05 18.1434Z" fill="#1D2130"/>
<path d="M1144.49 11.4564V21.0093H1141.61V20.1119C1141.28 20.5092 1140.87 20.8235 1140.4 21.0297C1139.93 21.2359 1139.41 21.328 1138.9 21.2988C1136.98 21.2988 1135.34 19.9189 1135.34 17.3425V11.4564H1138.22V16.9083C1138.2 17.1362 1138.22 17.3664 1138.3 17.5829C1138.37 17.7993 1138.49 17.997 1138.65 18.1621C1138.81 18.3273 1139 18.456 1139.21 18.5394C1139.43 18.6228 1139.65 18.6589 1139.88 18.6452C1140.92 18.6452 1141.65 18.0276 1141.65 16.7153V11.4564H1144.49Z" fill="#1D2130"/>
<path d="M1160.82 15.1424V21.0093H1157.94V15.3933C1157.94 14.4283 1157.49 13.8301 1156.58 13.8301C1155.66 13.8301 1155.09 14.4959 1155.09 15.6249V21.0093H1152.21V15.3933C1152.21 14.4283 1151.75 13.8301 1150.84 13.8301C1149.93 13.8301 1149.35 14.4959 1149.35 15.6249V21.0093H1146.47V11.4563H1149.35V12.3344C1149.65 11.9464 1150.04 11.6392 1150.49 11.4404C1150.93 11.2417 1151.42 11.1576 1151.91 11.1958C1152.39 11.1702 1152.88 11.2724 1153.32 11.4924C1153.75 11.7123 1154.12 12.0424 1154.4 12.4502C1154.71 12.0241 1155.13 11.6856 1155.61 11.4662C1156.09 11.2468 1156.62 11.1538 1157.15 11.1958C1159.4 11.1958 1160.82 12.759 1160.82 15.1424Z" fill="#1D2130"/>
<path d="M1053.68 4.55696V0.455933H1040.81V28.6324H1053.68V24.5314C1051.04 24.5314 1048.51 23.4791 1046.65 21.6062C1044.78 19.7332 1043.74 17.1929 1043.74 14.5442C1043.74 11.8954 1044.78 9.3551 1046.65 7.48214C1048.51 5.60918 1051.04 4.55696 1053.68 4.55696Z" fill="#1D2130"/>
<path d="M1053.68 4.55696V24.5314C1056.31 24.5314 1058.84 23.4791 1060.71 21.6062C1062.57 19.7332 1063.62 17.1929 1063.62 14.5442C1063.62 11.8954 1062.57 9.35511 1060.71 7.48214C1058.84 5.60918 1056.31 4.55696 1053.68 4.55696Z" fill="#1D2130"/>
<path d="M1163.24 11.3984C1164.41 11.3984 1165.35 10.448 1165.35 9.27552C1165.35 8.10309 1164.41 7.15264 1163.24 7.15264C1162.07 7.15264 1161.13 8.10309 1161.13 9.27552C1161.13 10.448 1162.07 11.3984 1163.24 11.3984Z" fill="#1D2130"/>
</g>
</svg>
