<svg width="26" height="26" viewBox="0 0 26 26" fill="none" xmlns="http://www.w3.org/2000/svg">
<rect y="0.455811" width="25.4892" height="25.4892" rx="3.64131" fill="#F8A135"/>
<path d="M12.6375 11.5997C12.7917 11.6568 12.9429 11.517 12.8918 11.3683C12.5411 10.3476 11.2713 9.96688 10.0909 10.8724C9.46997 11.3488 9.23664 11.45 9.23076 11.4526C9.64009 11.8391 10.1077 13.1362 11.1283 13.2796C12.2525 13.4721 13.2475 12.4275 12.4335 11.9495C11.8981 11.6352 11.2677 11.4526 10.5921 11.4526C11.3004 11.3018 12.0076 11.3664 12.6375 11.5997Z" fill="#DDFFDF"/>
<path d="M17.7282 10.8724C15.6906 9.3092 14.3911 11.7743 15.1989 11.53C15.7726 11.3564 16.3997 11.3186 17.0288 11.4525C15.9629 11.4525 14.9804 11.9139 14.3253 12.6648C14.3791 11.4847 14.4605 10.746 14.5548 10.1966C15.0993 10.1789 15.825 9.76363 16.2235 9.03702C16.9105 7.87578 16.5919 6.68514 16.4894 5.93384C15.9526 6.42756 13.6075 5.84905 12.6778 7.35358C12.2672 8.01819 12.3865 8.82694 12.8185 9.41878C12.9553 9.60614 13.2823 9.51624 13.2916 9.28886C13.3322 8.29977 13.8534 7.55247 14.8251 7.13857C14.3891 7.67213 14.1028 8.26949 13.9549 8.88691C13.725 9.8487 13.4849 10.4796 13.3967 13.5451C13.3877 13.856 13.6544 14.1133 13.9837 14.1094C14.222 14.1066 14.4262 13.9638 14.5179 13.7559C14.6573 13.4398 14.8843 13.1127 15.2535 12.813C15.6045 13.1793 16.1384 13.3742 16.691 13.2796C17.7072 13.1367 18.1814 11.8369 18.5885 11.4525C18.5825 11.45 18.3491 11.3488 17.7282 10.8724Z" fill="#DDFFDF"/>
<path d="M20.7236 14.692C20.0866 14.2838 19.3933 14.5746 19.0749 14.7483L15.0794 17.5101L12.7399 17.5106L12.155 16.9582H14.3036C14.9497 16.9582 15.6734 16.5607 15.6734 15.8533C15.6734 15.1021 14.9497 14.7483 14.3036 14.7483H13.4984C12.9003 14.7483 12.2014 14.7986 11.7085 14.5495C11.2403 14.3244 10.7011 14.1964 10.1256 14.1964C9.15913 14.1964 8.29415 14.5603 7.70142 15.1341L4.55176 18.0625L8.06097 21.3768L9.23071 19.7196H14.7583C15.3478 19.7196 15.9168 19.5154 16.3575 19.1457L20.7636 15.4491C21.0085 15.2436 20.9947 14.8657 20.7236 14.692Z" fill="#DDFFDF"/>
</svg>
