<svg width="26" height="26" viewBox="0 0 26 26" fill="none" xmlns="http://www.w3.org/2000/svg">
<rect y="0.499878" width="25.4892" height="25.4892" rx="3.64131" fill="#F8A135"/>
<path d="M13.5996 17.4298H14.3997V19.6168H13.5996V17.4298Z" fill="#DDFFDF"/>
<path d="M11.9994 17.4298H12.7995V19.6168H11.9994V17.4298Z" fill="#DDFFDF"/>
<path d="M15.8932 5.96185H10.5059C10.2849 5.96185 10.1058 6.14097 10.1058 6.3619V19.6168H11.1993V17.0298C11.1993 16.8089 11.3784 16.6298 11.5993 16.6298H14.7997C15.0206 16.6298 15.1998 16.8089 15.1998 17.0298V19.6168H16.2932V6.3619C16.2932 6.14097 16.1141 5.96185 15.8932 5.96185ZM11.9994 15.4296C11.9994 15.6505 11.8203 15.8297 11.5993 15.8297C11.3784 15.8297 11.1993 15.6505 11.1993 15.4296V14.6295C11.1993 14.4086 11.3784 14.2295 11.5993 14.2295C11.8203 14.2295 11.9994 14.4086 11.9994 14.6295V15.4296ZM11.9994 13.0293C11.9994 13.2503 11.8203 13.4294 11.5993 13.4294C11.3784 13.4294 11.1993 13.2503 11.1993 13.0293V12.2292C11.1993 12.0083 11.3784 11.8292 11.5993 11.8292C11.8203 11.8292 11.9994 12.0083 11.9994 12.2292V13.0293ZM13.5996 15.4296C13.5996 15.6505 13.4205 15.8297 13.1995 15.8297C12.9786 15.8297 12.7995 15.6505 12.7995 15.4296V14.6295C12.7995 14.4086 12.9786 14.2295 13.1995 14.2295C13.4205 14.2295 13.5996 14.4086 13.5996 14.6295V15.4296ZM13.5996 13.0293C13.5996 13.2503 13.4205 13.4294 13.1995 13.4294C12.9786 13.4294 12.7995 13.2503 12.7995 13.0293V12.2292C12.7995 12.0083 12.9786 11.8292 13.1995 11.8292C13.4205 11.8292 13.5996 12.0083 13.5996 12.2292V13.0293ZM15.1998 15.4296C15.1998 15.6505 15.0206 15.8297 14.7997 15.8297C14.5788 15.8297 14.3997 15.6505 14.3997 15.4296V14.6295C14.3997 14.4086 14.5788 14.2295 14.7997 14.2295C15.0206 14.2295 15.1998 14.4086 15.1998 14.6295V15.4296ZM15.1998 13.0293C15.1998 13.2503 15.0206 13.4294 14.7997 13.4294C14.5788 13.4294 14.3997 13.2503 14.3997 13.0293V12.2292C14.3997 12.0083 14.5788 11.8292 14.7997 11.8292C15.0206 11.8292 15.1998 12.0083 15.1998 12.2292V13.0293ZM11.9994 10.6291C11.9994 10.85 11.8203 11.0291 11.5993 11.0291C11.3784 11.0291 11.1993 10.85 11.1993 10.6291V9.82897C11.1993 9.60803 11.3784 9.42892 11.5993 9.42892C11.8203 9.42892 11.9994 9.60803 11.9994 9.82897V10.6291ZM13.5996 10.6291C13.5996 10.85 13.4205 11.0291 13.1995 11.0291C12.9786 11.0291 12.7995 10.85 12.7995 10.6291V9.82897C12.7995 9.60803 12.9786 9.42892 13.1995 9.42892C13.4205 9.42892 13.5996 9.60803 13.5996 9.82897V10.6291ZM15.1998 10.6291C15.1998 10.85 15.0206 11.0291 14.7997 11.0291C14.5788 11.0291 14.3997 10.85 14.3997 10.6291V9.82897C14.3997 9.60803 14.5788 9.42892 14.7997 9.42892C15.0206 9.42892 15.1998 9.60803 15.1998 9.82897V10.6291ZM11.9994 8.22878C11.9994 8.44971 11.8203 8.62883 11.5993 8.62883C11.3784 8.62883 11.1993 8.44971 11.1993 8.22878V7.42869C11.1993 7.20776 11.3784 7.02864 11.5993 7.02864C11.8203 7.02864 11.9994 7.20776 11.9994 7.42869V8.22878ZM13.5996 8.22878C13.5996 8.44971 13.4205 8.62883 13.1995 8.62883C12.9786 8.62883 12.7995 8.44971 12.7995 8.22878V7.42869C12.7995 7.20776 12.9786 7.02864 13.1995 7.02864C13.4205 7.02864 13.5996 7.20776 13.5996 7.42869V8.22878ZM15.1998 8.22878C15.1998 8.44971 15.0206 8.62883 14.7997 8.62883C14.5788 8.62883 14.3997 8.44971 14.3997 8.22878V7.42869C14.3997 7.20776 14.5788 7.02864 14.7997 7.02864C15.0206 7.02864 15.1998 7.20776 15.1998 7.42869V8.22878Z" fill="#DDFFDF"/>
<path d="M19.6269 11.2958H17.0933V19.6168H19.6269C19.8479 19.6168 20.027 19.4377 20.027 19.2167V11.6958C20.027 11.4749 19.8479 11.2958 19.6269 11.2958ZM18.9602 16.4964C18.9602 16.7173 18.7811 16.8965 18.5601 16.8965C18.3392 16.8965 18.1601 16.7173 18.1601 16.4964V15.6963C18.1601 15.4754 18.3392 15.2963 18.5601 15.2963C18.7811 15.2963 18.9602 15.4754 18.9602 15.6963V16.4964ZM18.9602 14.0961C18.9602 14.3171 18.7811 14.4962 18.5601 14.4962C18.3392 14.4962 18.1601 14.3171 18.1601 14.0961V13.296C18.1601 13.0751 18.3392 12.896 18.5601 12.896C18.7811 12.896 18.9602 13.0751 18.9602 13.296V14.0961Z" fill="#DDFFDF"/>
<path d="M6.77212 11.2958C6.55118 11.2958 6.37207 11.4749 6.37207 11.6958V19.2167C6.37207 19.4377 6.55118 19.6168 6.77212 19.6168H9.30574V11.2958H6.77212ZM8.23895 16.4964C8.23895 16.7173 8.05984 16.8965 7.83891 16.8965C7.61797 16.8965 7.43886 16.7173 7.43886 16.4964V15.6963C7.43886 15.4754 7.61797 15.2963 7.83891 15.2963C8.05984 15.2963 8.23895 15.4754 8.23895 15.6963V16.4964ZM8.23895 14.0961C8.23895 14.3171 8.05984 14.4962 7.83891 14.4962C7.61797 14.4962 7.43886 14.3171 7.43886 14.0961V13.296C7.43886 13.0751 7.61797 12.896 7.83891 12.896C8.05984 12.896 8.23895 13.0751 8.23895 13.296V14.0961Z" fill="#DDFFDF"/>
</svg>
