<svg width="26" height="26" viewBox="0 0 26 26" fill="none" xmlns="http://www.w3.org/2000/svg">
<rect y="0.29187" width="25.4892" height="25.4892" rx="3.64131" fill="#F8A135"/>
<path d="M20.8223 16.5001V17.3913C20.8223 17.981 20.4305 18.4853 19.8812 18.6822C19.8815 18.7047 19.8821 18.727 19.8821 18.7494V21.1793C21.024 20.9542 21.8848 19.991 21.8848 18.8405V16.5L20.8223 16.5001Z" fill="#DDFFDF"/>
<path d="M13.4431 9.80327V8.87151C13.4431 8.06497 13.1284 7.28324 12.5569 6.67002C12.0218 6.096 11.318 5.73126 10.5575 5.63005C10.3891 5.47526 10.0817 5.19287 9.77348 4.911C9.50692 4.66714 9.29384 4.47289 9.13979 4.33368C9.05145 4.25384 8.97741 4.18733 8.92491 4.14101C8.81003 4.03967 8.5964 3.85083 8.27983 3.9729L7.94104 4.1038L7.98549 6.10484L7.90201 6.16211C7.35722 6.53608 6.99232 7.11169 6.89856 7.74351L5.44534 8.66446L5.44048 9.29721C5.437 9.77978 5.63203 10.234 5.98984 10.5764C6.3478 10.9189 6.82452 11.1074 7.3325 11.1074H8.43916V12.0352C8.43916 12.4962 8.51708 12.9516 8.67043 13.3889L9.4908 15.7268V19.2781C8.63015 19.4702 7.98619 20.2054 7.98424 21.0804L7.98244 21.2278L11.1499 21.2282C11.2366 20.4401 11.8451 19.7967 12.6402 19.6171V18.9978C12.6402 17.3035 14.0911 15.9251 15.8745 15.9251H15.9527V16.9345H15.8745C14.677 16.9345 13.7027 17.8601 13.7027 18.9978V20.5763H13.0914C12.671 20.5763 12.3175 20.8552 12.225 21.2283L18.8509 21.2294V18.7495C18.8509 16.5464 17.9816 14.4442 16.4033 12.8302L13.4431 9.80327Z" fill="#DDFFDF"/>
</svg>
