<svg width="26" height="27" viewBox="0 0 26 27" fill="none" xmlns="http://www.w3.org/2000/svg">
<rect y="0.875854" width="25.4892" height="25.4892" rx="3.64131" fill="#F8A135"/>
<path d="M20.7529 18.5741C20.4999 18.3983 20.2773 18.1824 20.0937 17.935C19.6543 17.4357 19.0951 16.8165 18.0564 16.8165C17.0178 16.8165 16.4785 17.4157 16.0191 17.955C15.5597 18.4943 15.2601 18.8138 14.581 18.8138C13.9019 18.8138 13.5624 18.4343 13.143 17.955C12.7235 17.4756 12.1642 16.8165 11.1056 16.8165C10.047 16.8165 9.52775 17.4157 9.06833 17.955C8.60896 18.4943 8.30934 18.8138 7.63025 18.8138C6.95116 18.8138 6.6116 18.4343 6.19217 17.955C5.90705 17.5784 5.5465 17.2655 5.13357 17.0362C4.935 16.9369 4.69357 17.0174 4.59429 17.2159C4.495 17.4145 4.57548 17.6559 4.77405 17.7552C5.08765 17.9442 5.36498 18.1878 5.59295 18.4743C6.05232 19.0135 6.5916 19.6128 7.63025 19.6128C8.6689 19.6128 9.20814 19.0136 9.66756 18.4743C10.1269 17.935 10.4266 17.6154 11.1056 17.6154C11.7847 17.6154 12.1243 17.9949 12.5437 18.4743C12.9632 18.9536 13.5224 19.6128 14.581 19.6128C15.6396 19.6128 16.1589 19.0136 16.6183 18.4743C17.0777 17.935 17.3773 17.6154 18.0564 17.6154C18.7355 17.6154 19.0751 17.9949 19.4945 18.4743C19.7273 18.7732 20.0033 19.0357 20.3134 19.2532C20.5009 19.3746 20.7513 19.3209 20.8727 19.1334C20.9941 18.9458 20.9404 18.6955 20.7529 18.5741Z" fill="#DDFFDF"/>
<path d="M20.7529 15.5781C20.4999 15.4023 20.2773 15.1864 20.0937 14.939C19.6543 14.4396 19.0951 13.8205 18.0564 13.8205C17.0178 13.8205 16.4785 14.4196 16.0191 14.959C15.5597 15.4982 15.2601 15.8178 14.581 15.8178C13.9019 15.8178 13.5624 15.4383 13.143 14.959C12.7235 14.4796 12.1642 13.8205 11.1056 13.8205C10.047 13.8205 9.52775 14.4196 9.06833 14.959C8.60896 15.4982 8.30934 15.8178 7.63025 15.8178C6.95116 15.8178 6.6116 15.4383 6.19217 14.959C5.90705 14.5824 5.5465 14.2695 5.13357 14.0402C4.935 13.9409 4.69357 14.0214 4.59429 14.2199C4.495 14.4185 4.57548 14.6599 4.77405 14.7592C5.08765 14.9482 5.36498 15.1917 5.59295 15.4783C6.05232 16.0175 6.5916 16.6168 7.63025 16.6168C8.6689 16.6168 9.20814 16.0176 9.66756 15.4783C10.1269 14.939 10.4266 14.6194 11.1056 14.6194C11.7847 14.6194 12.1243 14.9989 12.5437 15.4783C12.9632 15.9576 13.5224 16.6168 14.581 16.6168C15.6396 16.6168 16.1589 16.0176 16.6183 15.4783C17.0777 14.939 17.3773 14.6194 18.0564 14.6194C18.7355 14.6194 19.0751 14.9989 19.4945 15.4783C19.7273 15.7771 20.0033 16.0397 20.3134 16.2572C20.5009 16.3785 20.7513 16.3249 20.8727 16.1373C20.9941 15.9499 20.9404 15.6995 20.7529 15.5781Z" fill="#DDFFDF"/>
<path d="M20.7529 12.3822C20.4999 12.2064 20.2773 11.9905 20.0937 11.7431C19.6543 11.2438 19.0951 10.6246 18.0564 10.6246C17.0178 10.6246 16.4785 11.2238 16.0191 11.7631C15.5597 12.3024 15.2601 12.622 14.581 12.622C13.9019 12.622 13.5624 12.2424 13.143 11.7631C12.7235 11.2838 12.1642 10.6246 11.1056 10.6246C10.047 10.6246 9.52775 11.2238 9.06833 11.7631C8.60896 12.3024 8.30934 12.622 7.63025 12.622C6.95116 12.622 6.6116 12.2424 6.19217 11.7631C5.90705 11.3865 5.5465 11.0736 5.13357 10.8443C4.935 10.745 4.69357 10.8255 4.59429 11.0241C4.495 11.2226 4.57548 11.4641 4.77405 11.5633C5.08765 11.7524 5.36498 11.9959 5.59295 12.2824C6.05232 12.8217 6.5916 13.4209 7.63025 13.4209C8.6689 13.4209 9.20814 12.8217 9.66756 12.2824C10.1269 11.7431 10.4266 11.4235 11.1056 11.4235C11.7847 11.4235 12.1243 11.8031 12.5437 12.2824C12.9632 12.7617 13.5224 13.4209 14.581 13.4209C15.6396 13.4209 16.1589 12.8217 16.6183 12.2824C17.0778 11.7431 17.3773 11.4235 18.0564 11.4235C18.7355 11.4235 19.0751 11.8031 19.4945 12.2824C19.7273 12.5813 20.0033 12.8438 20.3134 13.0613C20.5009 13.1827 20.7513 13.129 20.8727 12.9415C20.9941 12.754 20.9404 12.5036 20.7529 12.3822Z" fill="#DDFFDF"/>
<path d="M4.7742 8.56741C5.08781 8.75643 5.36513 8.99995 5.5931 9.28645C6.05248 9.82573 6.59176 10.425 7.63041 10.425C8.66906 10.425 9.2083 9.82577 9.66772 9.28645C10.1271 8.74717 10.4267 8.4276 11.1058 8.4276C11.7849 8.4276 12.1245 8.80712 12.5439 9.28645C12.9633 9.76583 13.5226 10.425 14.5812 10.425C15.6398 10.425 16.1591 9.82577 16.6185 9.28645C17.0779 8.74717 17.3775 8.4276 18.0566 8.4276C18.7357 8.4276 19.0752 8.80712 19.4947 9.28645C19.7274 9.58534 20.0034 9.84787 20.3136 10.0654C20.5011 10.1868 20.7515 10.1331 20.8728 9.94559C20.9942 9.75807 20.9405 9.50766 20.753 9.38631C20.5 9.21049 20.2774 8.9946 20.0939 8.74717C19.6544 8.24784 19.0952 7.62866 18.0565 7.62866C17.0179 7.62866 16.4787 8.22785 16.0192 8.76717C15.5599 9.30645 15.2602 9.62602 14.5812 9.62602C13.9021 9.62602 13.5625 9.2465 13.1431 8.76717C12.7236 8.2878 12.1644 7.62866 11.1058 7.62866C10.0472 7.62866 9.52787 8.22785 9.06845 8.76717C8.60908 9.30645 8.30946 9.62602 7.63037 9.62602C6.95128 9.62602 6.61179 9.2465 6.19233 8.76713C5.9072 8.39056 5.54665 8.07764 5.13372 7.84833C4.93515 7.74905 4.69373 7.82953 4.59444 8.0281C4.49516 8.22666 4.57567 8.46813 4.7742 8.56741Z" fill="#DDFFDF"/>
</svg>
