<svg width="95" height="35" viewBox="0 0 95 35" fill="none" xmlns="http://www.w3.org/2000/svg">
<path d="M77.0982 0.642334C76.581 0.642334 76.0712 0.665328 75.5658 0.70988H41.2654H5.79845C2.69986 0.70988 0.1875 3.57554 0.1875 7.11091V27.5068C0.1875 31.0422 2.69986 33.9078 5.79845 33.9078H40.2972L75.892 34.0515C76.2035 34.0515 76.509 34.0214 76.8073 33.9653C76.9043 33.9668 77.0012 33.9696 77.0982 33.9696C86.5659 33.9696 94.2411 26.5094 94.2411 17.306C94.2411 8.10253 86.5659 0.642334 77.0982 0.642334Z" fill="#152C41"/>
<path d="M11.6126 24.2778L11.4424 25.1239H9.5799L9.47643 25.6413H11.339L11.1688 26.4875H9.30627L9.16601 27.198H11.0285L10.8584 28.0442H7.22071L7.97491 24.2778H11.6126ZM14.5811 24.2778H16.354L15.5998 28.0442H13.8269L13.2636 26.161L12.8865 28.0442H11.1113L11.8655 24.2778H13.6407L14.204 26.161L14.5811 24.2778ZM20.2446 24.2778L20.0744 25.1239H18.2119L18.1084 25.6413H19.9709L19.8008 26.4875H17.9383L17.798 27.198H19.6605L19.4904 28.0442H15.8527L16.6069 24.2778H20.2446ZM23.8891 24.2778C24.0838 24.2778 24.2371 24.3475 24.349 24.487C24.4303 24.5912 24.4709 24.71 24.4709 24.8434C24.4709 24.8894 24.4663 24.9377 24.4571 24.9883L24.2754 25.8988C24.2233 26.1564 24.0754 26.3557 23.8317 26.4967C23.965 26.6009 24.0317 26.7466 24.0317 26.9336V26.9704C24.0256 27.093 24.0171 27.2172 24.0064 27.3429C23.9972 27.4686 23.9895 27.5927 23.9834 27.7154C23.9773 27.743 23.9742 27.7698 23.9742 27.7959C23.9742 27.8986 24.0233 27.9729 24.1214 28.0189L24.1099 28.0442H22.4704C22.3784 28.0442 22.3071 28.012 22.2566 27.9476C22.2198 27.9001 22.2014 27.8457 22.2014 27.7844C22.2014 27.7614 22.2037 27.7376 22.2083 27.7131L22.3048 26.8853C22.3079 26.8669 22.3094 26.85 22.3094 26.8347C22.3094 26.781 22.2933 26.7335 22.2612 26.6921C22.2167 26.6385 22.1569 26.6109 22.0818 26.6094H21.8059L21.5184 28.0442H19.7433L20.4975 24.2778H23.8891ZM22.3784 25.1239H22.1025L21.9737 25.7655H22.2497C22.3248 25.7655 22.3953 25.7386 22.4612 25.685C22.5271 25.6313 22.5677 25.5662 22.5831 25.4895L22.6015 25.3999C22.6061 25.3799 22.6084 25.3615 22.6084 25.3447C22.6084 25.2926 22.5915 25.2458 22.5578 25.2044C22.5133 25.1508 22.4535 25.1239 22.3784 25.1239ZM25.8344 24.2778H28.5155C28.7102 24.2778 28.8635 24.3475 28.9754 24.487C29.0567 24.5912 29.0973 24.71 29.0973 24.8434C29.0973 24.8894 29.0927 24.9377 29.0835 24.9883L28.9685 25.5654H27.1934L27.2256 25.3999C27.2302 25.3799 27.2325 25.3608 27.2325 25.3424C27.2325 25.2918 27.2164 25.2458 27.1842 25.2044C27.1397 25.1508 27.08 25.1239 27.0048 25.1239C26.9282 25.1239 26.8577 25.1515 26.7933 25.2067C26.7289 25.2604 26.6891 25.3248 26.6737 25.3999L26.3702 26.9221C26.3656 26.942 26.3633 26.9612 26.3633 26.9796C26.3633 27.0317 26.3794 27.0777 26.4116 27.1175C26.4545 27.1712 26.5143 27.198 26.5909 27.198C26.6661 27.198 26.7358 27.1712 26.8002 27.1175C26.8661 27.0639 26.9067 26.9987 26.9221 26.9221L26.9542 26.7565H26.6783L26.7979 26.161H28.849L28.6144 27.3337C28.5746 27.5299 28.4711 27.6977 28.304 27.8372C28.1369 27.9752 27.956 28.0442 27.7613 28.0442H25.0802C24.884 28.0442 24.7307 27.9744 24.6203 27.8349C24.5376 27.7338 24.4962 27.6165 24.4962 27.4831C24.4962 27.4356 24.5015 27.3858 24.5123 27.3337L24.9814 24.9883C25.0197 24.7936 25.1224 24.6265 25.2895 24.487C25.4566 24.3475 25.6382 24.2778 25.8344 24.2778ZM31.7393 28.0442H29.9642L30.3091 26.315L29.3502 24.2778H31.0173L31.5094 25.3309L32.4268 24.2778H33.5674L32.1716 25.8781L31.7393 28.0442Z" fill="white"/>
<path d="M8.8648 10.9128H13.8954C14.251 10.9128 14.5301 11.0379 14.7343 11.2865C14.8813 11.4676 14.9591 11.6918 14.9562 11.9232C14.9562 12.0094 14.9474 12.097 14.9312 12.1818L14.7211 13.2123H11.4139L11.4741 12.9119C11.4903 12.8472 11.4918 12.7797 11.4771 12.715C11.4697 12.6762 11.4506 12.6403 11.4286 12.6087C11.3199 12.4592 11.192 12.4075 11.0657 12.4132C10.9217 12.4146 10.7821 12.4664 10.6749 12.5612C10.5618 12.6503 10.4839 12.7739 10.453 12.9133L9.89179 15.6683C9.88297 15.7028 9.87856 15.7373 9.87856 15.7718C9.8771 15.8623 9.90942 15.9514 9.96819 16.0219C10.049 16.1196 10.1724 16.1742 10.3002 16.167C10.4442 16.1656 10.5823 16.1138 10.6896 16.0219C10.8042 15.9342 10.8835 15.8077 10.9129 15.6683L10.9731 15.368H14.2657L14.0556 16.3984C13.9806 16.7534 13.7793 17.071 13.4884 17.2952C13.2152 17.5309 12.8625 17.6631 12.4982 17.6674H7.48374C7.12378 17.6674 6.84316 17.5424 6.6404 17.2923C6.49054 17.1155 6.40974 16.8913 6.41268 16.6614C6.41268 16.5709 6.42296 16.4818 6.44206 16.3927L7.30155 12.1861C7.37501 11.8312 7.5763 11.5121 7.8672 11.2879C8.14195 11.0494 8.49603 10.9157 8.8648 10.9128Z" fill="white"/>
<path d="M18.2181 10.9126H21.1095L22.2188 17.6672H18.8881L18.7691 16.9486H16.7812L16.3904 17.6672H14.3394L18.2181 10.9126ZM18.5986 15.5114L18.3547 14.0484L17.5569 15.5114H18.5986Z" fill="white"/>
<path d="M25.1378 10.9126H30.1464C30.502 10.9126 30.7811 11.0376 30.9853 11.2863C31.1323 11.4673 31.2101 11.6915 31.2072 11.9229C31.2072 12.0091 31.1984 12.0968 31.1822 12.1816L30.9721 13.212H27.6884L27.7472 12.9145C27.756 12.88 27.7604 12.8455 27.7604 12.8111C27.7619 12.5955 27.5841 12.4187 27.3637 12.4187C27.3564 12.4187 27.349 12.4187 27.3417 12.4187C27.1962 12.4187 27.0567 12.4719 26.9494 12.5653C26.8377 12.653 26.7599 12.7766 26.7305 12.9145L26.6835 13.133C26.6805 13.1531 26.6791 13.1747 26.6791 13.1948C26.6747 13.2868 26.7422 13.3672 26.8348 13.3802L30.0832 14.1318C30.4359 14.2137 30.6122 14.4149 30.6122 14.7354C30.6107 14.8101 30.6033 14.8849 30.5857 14.9582L30.2948 16.3881C30.2184 16.7445 30.0171 17.065 29.7248 17.2906C29.4485 17.5278 29.0945 17.6614 28.7272 17.6643H23.7186C23.3601 17.6643 23.0809 17.5393 22.8797 17.2906C22.7298 17.1139 22.6505 16.8911 22.6534 16.6626C22.6534 16.5735 22.6637 16.483 22.6828 16.3953L22.8929 15.3649H26.1825L26.1237 15.6623C26.1149 15.6968 26.1119 15.7313 26.1105 15.7658C26.109 15.8564 26.1413 15.944 26.1986 16.013C26.2794 16.1107 26.4043 16.1639 26.5321 16.1582C26.6747 16.1567 26.8113 16.105 26.9185 16.013C27.0331 15.9253 27.111 15.8003 27.1404 15.6623L27.183 15.4482C27.1889 15.4266 27.1903 15.4037 27.1918 15.3821C27.1948 15.2901 27.1257 15.2096 27.0317 15.201L23.7862 14.4451C23.4306 14.3646 23.2543 14.1634 23.2543 13.8415C23.2543 13.7668 23.2631 13.692 23.2793 13.6187L23.5702 12.1888C23.6451 11.8324 23.8449 11.5133 24.1358 11.2877C24.4121 11.0491 24.7691 10.9155 25.1378 10.9126Z" fill="white"/>
<path d="M33.2571 10.9126H38.2657C38.6212 10.9126 38.9004 11.0376 39.1046 11.2863C39.2515 11.4673 39.3294 11.6915 39.3264 11.9229C39.3264 12.0091 39.3176 12.0968 39.3015 12.1816L39.0914 13.212H35.8062L35.865 12.9145C35.8738 12.8772 35.8782 12.8369 35.8767 12.7981C35.8723 12.6055 35.7122 12.4374 35.5153 12.4202C35.4962 12.4187 35.4771 12.4173 35.458 12.4187C35.3125 12.4187 35.1729 12.4719 35.0657 12.5653C34.954 12.653 34.8762 12.7766 34.8468 12.9145L34.7998 13.133C34.7968 13.1531 34.7954 13.1747 34.7954 13.1948C34.791 13.2868 34.8585 13.3672 34.9511 13.3802L38.201 14.1318C38.5536 14.2137 38.7285 14.4149 38.7285 14.7354C38.7285 14.8101 38.7196 14.8849 38.7035 14.9582L38.4126 16.3881C38.3362 16.7445 38.1349 17.065 37.8425 17.2906C37.5663 17.5278 37.2122 17.6614 36.8449 17.6643H31.8364C31.4779 17.6643 31.1987 17.5393 30.9974 17.2906C30.8476 17.1139 30.7668 16.8911 30.7712 16.6626C30.7712 16.5735 30.7815 16.483 30.8006 16.3953L31.0107 15.3649H34.3002L34.2415 15.6623C34.2326 15.6968 34.2297 15.7313 34.2282 15.7658C34.2268 15.8564 34.2576 15.944 34.3164 16.013C34.3972 16.1107 34.5221 16.1639 34.6499 16.1582C34.7924 16.1567 34.9291 16.105 35.0363 16.013C35.1509 15.9253 35.2288 15.8003 35.2582 15.6623L35.3008 15.4482C35.3066 15.4266 35.3081 15.4037 35.3096 15.3821C35.3125 15.2901 35.2435 15.2096 35.1494 15.201L31.9039 14.4451C31.5484 14.3646 31.3721 14.1634 31.3721 13.8415C31.3735 13.7668 31.3809 13.692 31.3985 13.6187L31.6894 12.1888C31.7644 11.8324 31.9642 11.5133 32.2551 11.2877C32.5328 11.0491 32.8868 10.9155 33.2571 10.9126Z" fill="white"/>
<path d="M40.0447 10.9126H43.3681L41.9562 17.8109H38.6328L40.0447 10.9126Z" fill="white"/>
<path d="M50.3425 10.9123C50.7068 10.9123 50.9933 11.0402 51.2034 11.296C51.3533 11.4814 51.4341 11.7114 51.4312 11.9485C51.4312 12.0376 51.4223 12.1267 51.4062 12.2129L50.5276 16.5085C50.4497 16.8721 50.244 17.1984 49.9458 17.4283C49.6651 17.6712 49.3037 17.8063 48.9291 17.8092H42.5791L43.991 10.9109L50.3425 10.9123ZM46.236 16.2297H46.7443C46.8869 16.2283 47.025 16.1766 47.1322 16.0846C47.2468 15.9969 47.3261 15.8719 47.3541 15.7325L47.9138 12.9904C47.9227 12.9559 47.9271 12.9214 47.9271 12.887C47.9285 12.6714 47.7508 12.4946 47.5289 12.4932C47.5216 12.4932 47.5142 12.4932 47.5069 12.4932H46.9985L46.236 16.2297Z" fill="white"/>
<path d="M55.9933 17.8109H52.6699L53.3164 14.6434L51.521 10.9126H54.6416L55.5628 12.8412L57.2803 10.9126H59.4151L56.8014 13.8429L55.9933 17.8109Z" fill="white"/>
<path d="M63.1894 7.46289H8.02313C6.90358 7.46289 5.99561 8.36398 5.99561 9.47489H61.6643C62.0684 8.73763 62.5782 8.06074 63.1894 7.46289Z" fill="#DB4F29"/>
<path d="M72.9155 26.5726C69.1352 24.0504 67.018 20.3326 66.9431 16.8518C66.3907 17.5474 66.0484 18.3306 65.9147 19.157C65.8794 19.3668 65.9014 19.6241 65.872 19.8296L65.9073 19.6183C65.8838 19.7706 65.8676 19.9244 65.8588 20.0811C65.8133 20.8787 65.9573 21.7266 66.2717 22.5817C66.3349 22.7527 66.4039 22.9237 66.4818 23.0962C67.2678 24.8552 68.7694 26.6028 70.8615 27.9638C73.8191 29.8824 77.6963 30.8596 81.0506 30.7461C82.3376 30.703 83.5468 30.5003 84.5973 30.1267C84.7442 30.0749 84.8896 30.0218 85.0307 29.9628C85.1379 29.8321 85.2496 29.7013 85.3598 29.5633C81.1828 29.9787 76.5136 28.9683 72.9155 26.5726Z" fill="url(#paint0_linear_16_676)"/>
<path d="M89.3676 12.9038C89.3176 12.8276 89.1193 12.4856 88.99 12.3706C88.9151 12.3045 88.9092 12.3275 88.8916 12.4008C88.9547 13.7388 88.8328 15.0365 88.5345 16.2609C88.1878 17.6248 87.6192 18.8938 86.8405 20.0148C85.8532 21.2105 84.6103 22.2136 83.1322 22.9451C81.256 23.8749 79.1492 24.2558 77.0364 24.1465C74.8752 24.0359 72.7066 23.4136 70.7687 22.3429L70.541 22.8344C70.6439 22.9422 70.7511 23.0471 70.8584 23.152C74.909 27.0855 81.5278 28.6548 86.1074 26.7032C87.3856 26.1542 88.442 25.3983 89.2633 24.49C90.1257 23.5357 90.7281 22.4148 91.0543 21.1932C91.7316 18.6667 91.2203 15.7076 89.3676 12.9038Z" fill="url(#paint1_linear_16_676)"/>
<path d="M80.9286 8.47744C84.4797 11.2885 86.2927 15.1774 86.1047 18.6783C86.7041 18.0215 87.1023 17.2598 87.2991 16.4406C87.3506 16.2337 87.3476 15.9721 87.3932 15.7681L87.3417 15.9764C87.377 15.8255 87.4035 15.6718 87.424 15.5151C87.5283 14.7175 87.4505 13.8552 87.2051 12.9728C87.1566 12.796 87.0993 12.6193 87.0361 12.4411C86.3912 10.6173 85.038 8.75049 83.0693 7.22999C80.2866 5.08578 76.5195 3.81822 73.1902 3.68313C71.9135 3.63139 70.6999 3.74637 69.6303 4.04242C69.4804 4.08266 69.3321 4.12721 69.1881 4.17607C69.0705 4.29823 68.9515 4.42326 68.8325 4.5526C72.9992 4.44626 77.5465 5.80579 80.9286 8.47744Z" fill="url(#paint2_linear_16_676)"/>
<path d="M82.9365 11.8666C79.259 7.60833 72.8385 5.52016 68.137 7.12401C66.8044 7.58246 65.6805 8.27372 64.7828 9.14032C64.1995 9.70368 63.7132 10.3389 63.3283 11.033C63.1094 11.4268 62.9228 11.8407 62.7714 12.269C61.8884 14.7538 62.1441 17.7632 63.7397 20.7179C63.7823 20.797 63.9512 21.1563 64.0688 21.2813C64.1378 21.3531 64.1452 21.3316 64.1687 21.2583C64.2201 19.9117 64.4508 18.6183 64.8489 17.4139C65.3088 16.0716 65.9787 14.8429 66.8456 13.7794C67.9255 12.657 69.2404 11.7459 70.7655 11.1264C72.7019 10.3389 74.8205 10.119 76.9039 10.3921C79.0357 10.6709 81.1293 11.4627 82.9571 12.6857L83.2244 12.2115C83.1304 12.0936 83.0334 11.9801 82.9365 11.8666Z" fill="url(#paint3_linear_16_676)"/>
<path d="M58.2671 20.1096H6.11572C6.11572 20.9834 7.12361 21.6905 8.36804 21.6905H58.201C58.1349 21.1645 58.1569 20.6342 58.2671 20.1096Z" fill="#DB4F29"/>
<defs>
<linearGradient id="paint0_linear_16_676" x1="65.8509" y1="23.8032" x2="85.3579" y2="23.8032" gradientUnits="userSpaceOnUse">
<stop stop-color="#F7CA18"/>
<stop offset="1" stop-color="#F89406"/>
</linearGradient>
<linearGradient id="paint1_linear_16_676" x1="70.541" y1="19.938" x2="91.3409" y2="19.938" gradientUnits="userSpaceOnUse">
<stop stop-color="#F7CA18"/>
<stop offset="1" stop-color="#F89406"/>
</linearGradient>
<linearGradient id="paint2_linear_16_676" x1="68.8317" y1="11.1759" x2="87.4679" y2="11.1759" gradientUnits="userSpaceOnUse">
<stop stop-color="#F7CA18"/>
<stop offset="1" stop-color="#F89406"/>
</linearGradient>
<linearGradient id="paint3_linear_16_676" x1="62.2677" y1="13.9556" x2="83.224" y2="13.9556" gradientUnits="userSpaceOnUse">
<stop stop-color="#F7CA18"/>
<stop offset="1" stop-color="#F89406"/>
</linearGradient>
</defs>
</svg>
