<svg width="41" height="41" viewBox="0 0 41 41" fill="none" xmlns="http://www.w3.org/2000/svg">
<path d="M41 23.0625V20.5H33.3125V33.3125H35.875V28.1875H39.7188V25.625H35.875V23.0625H41ZM26.9062 33.3125H21.7812V20.5H26.9062C27.9254 20.501 28.9024 20.9063 29.6231 21.6269C30.3437 22.3476 30.749 23.3246 30.75 24.3438V29.4688C30.749 30.4879 30.3437 31.4649 29.6231 32.1856C28.9024 32.9062 27.9254 33.3115 26.9062 33.3125ZM24.3438 30.75H26.9062C27.246 30.7497 27.5716 30.6146 27.8119 30.3744C28.0521 30.1341 28.1872 29.8085 28.1875 29.4688V24.3438C28.1872 24.004 28.0521 23.6784 27.8119 23.4381C27.5716 23.1979 27.246 23.0628 26.9062 23.0625H24.3438V30.75ZM16.6562 20.5H10.25V33.3125H12.8125V29.4688H16.6562C17.3356 29.4677 17.9867 29.1974 18.4671 28.7171C18.9474 28.2367 19.2177 27.5856 19.2188 26.9062V23.0625C19.2181 22.3831 18.9479 21.7317 18.4675 21.2513C17.987 20.7709 17.3357 20.5007 16.6562 20.5ZM12.8125 26.9062V23.0625H16.6562L16.6575 26.9062H12.8125Z" fill="#FF2020"/>
<path d="M28.1875 17.9374V12.8124C28.192 12.6441 28.16 12.4767 28.0936 12.3219C28.0273 12.167 27.9282 12.0284 27.8031 11.9156L18.8344 2.94682C18.7216 2.8217 18.583 2.72254 18.4281 2.65618C18.2733 2.58982 18.1059 2.55784 17.9375 2.56245H5.125C4.44601 2.56448 3.7954 2.8351 3.31528 3.31523C2.83516 3.79535 2.56453 4.44595 2.5625 5.12495V35.8749C2.5625 36.5546 2.83248 37.2063 3.31304 37.6869C3.7936 38.1675 4.44538 38.4374 5.125 38.4374H25.625V35.8749H5.125V5.12495H15.375V12.8124C15.377 13.4914 15.6477 14.142 16.1278 14.6222C16.6079 15.1023 17.2585 15.3729 17.9375 15.3749H25.625V17.9374H28.1875ZM17.9375 12.8124V5.63745L25.1125 12.8124H17.9375Z" fill="#FF2020"/>
</svg>
